<svg xmlns="http://www.w3.org/2000/svg" xmlns:xlink="http://www.w3.org/1999/xlink" width="500" zoomAndPan="magnify" viewBox="0 0 375 374.999991" height="500" preserveAspectRatio="xMidYMid meet" version="1.0"><defs><g/></defs><path fill="#f2f4f8" d="M 244.554688 131.550781 C 259.648438 145.773438 268.839844 166.769531 268.9375 187.761719 C 269.03125 208.757812 260.035156 229.945312 244.941406 244.167969 C 229.945312 258.488281 208.757812 265.9375 187.859375 265.644531 C 166.960938 265.453125 146.257812 257.617188 131.746094 243.394531 C 117.328125 229.074219 109.105469 208.371094 108.8125 187.375 C 108.523438 166.378906 116.167969 145.09375 130.679688 130.875 C 145.09375 116.554688 166.378906 109.296875 187.472656 109.492188 C 208.5625 109.589844 229.558594 117.230469 244.554688 131.550781 Z M 244.554688 131.550781 " fill-opacity="1" fill-rule="nonzero"/><g fill="#12aa8a" fill-opacity="1"><g transform="translate(138.494278, 215.029685)"><g><path d="M 18.125 -20.375 C 12.832031 -21.082031 8.90625 -22.488281 6.34375 -24.59375 C 3.78125 -26.695312 2.5 -29.957031 2.5 -34.375 L 2.5 -35.0625 C 2.5 -39.476562 3.976562 -43 6.9375 -45.625 C 9.894531 -48.25 14.144531 -49.5625 19.6875 -49.5625 C 25.6875 -49.5625 30.0625 -48.195312 32.8125 -45.46875 C 35.5625 -42.738281 36.9375 -38.519531 36.9375 -32.8125 L 36.9375 -31.5 L 26.8125 -31.5 C 26.8125 -34.707031 26.28125 -37.0625 25.21875 -38.5625 C 24.15625 -40.0625 22.332031 -40.8125 19.75 -40.8125 L 19.1875 -40.8125 C 17.144531 -40.8125 15.5625 -40.3125 14.4375 -39.3125 C 13.3125 -38.3125 12.75 -37.019531 12.75 -35.4375 L 12.75 -35.125 C 12.75 -33.957031 12.96875 -32.957031 13.40625 -32.125 C 13.84375 -31.289062 14.675781 -30.601562 15.90625 -30.0625 C 17.132812 -29.519531 18.9375 -29.082031 21.3125 -28.75 C 26.644531 -28.039062 30.644531 -26.644531 33.3125 -24.5625 C 35.976562 -22.476562 37.3125 -19.164062 37.3125 -14.625 L 37.3125 -14 C 37.3125 -9.332031 35.800781 -5.695312 32.78125 -3.09375 C 29.757812 -0.488281 25.394531 0.8125 19.6875 0.8125 C 13.9375 0.8125 9.570312 -0.53125 6.59375 -3.21875 C 3.613281 -5.90625 2.125 -10.1875 2.125 -16.0625 L 2.125 -16.625 L 12.25 -16.625 C 12.25 -13.582031 12.863281 -11.375 14.09375 -10 C 15.320312 -8.625 17.101562 -7.9375 19.4375 -7.9375 L 20 -7.9375 C 22.332031 -7.9375 24.082031 -8.488281 25.25 -9.59375 C 26.414062 -10.695312 27 -12.0625 27 -13.6875 L 27 -14 C 27 -15.164062 26.75 -16.164062 26.25 -17 C 25.75 -17.832031 24.863281 -18.53125 23.59375 -19.09375 C 22.320312 -19.65625 20.5 -20.082031 18.125 -20.375 Z M 18.125 -20.375 "/></g></g></g><g fill="#12aa8a" fill-opacity="1"><g transform="translate(177.932931, 215.029685)"><g><path d="M 36.3125 0.125 L 29.25 -37.1875 L 22.1875 0.125 L 9.25 0.125 L 1.1875 -48.75 L 11.75 -48.75 L 16.4375 -13.6875 L 23 -48.75 L 35.5625 -48.75 L 42.125 -13.6875 L 46.8125 -48.75 L 57.375 -48.75 L 49.3125 0.125 Z M 36.3125 0.125 "/></g></g></g></svg>