<svg xmlns="http://www.w3.org/2000/svg" xmlns:xlink="http://www.w3.org/1999/xlink" width="2500" zoomAndPan="magnify" viewBox="0 0 1874.88 525.000007" height="700" preserveAspectRatio="xMidYMid meet" version="1.0"><defs><g/><clipPath id="7b5414e3a1"><path d="M 21.335938 123.042969 L 320.953125 123.042969 L 320.953125 422.660156 L 21.335938 422.660156 Z M 21.335938 123.042969 " clip-rule="nonzero"/></clipPath></defs><g clip-path="url(#7b5414e3a1)"><path fill="#14b67c" d="M 320.292969 272.523438 C 320.292969 274.96875 320.234375 277.414062 320.113281 279.859375 C 319.996094 282.300781 319.8125 284.742188 319.574219 287.175781 C 319.335938 289.609375 319.035156 292.035156 318.675781 294.457031 C 318.316406 296.875 317.898438 299.285156 317.421875 301.6875 C 316.945312 304.085938 316.410156 306.472656 315.816406 308.84375 C 315.21875 311.21875 314.566406 313.574219 313.859375 315.914062 C 313.148438 318.257812 312.378906 320.578125 311.554688 322.882812 C 310.730469 325.183594 309.851562 327.464844 308.914062 329.726562 C 307.980469 331.988281 306.988281 334.222656 305.941406 336.433594 C 304.898438 338.644531 303.796875 340.832031 302.644531 342.988281 C 301.492188 345.144531 300.285156 347.273438 299.027344 349.371094 C 297.769531 351.46875 296.460938 353.535156 295.101562 355.570312 C 293.742188 357.605469 292.335938 359.601562 290.878906 361.566406 C 289.421875 363.53125 287.914062 365.460938 286.363281 367.351562 C 284.8125 369.242188 283.214844 371.09375 281.570312 372.90625 C 279.929688 374.71875 278.242188 376.492188 276.511719 378.222656 C 274.78125 379.949219 273.011719 381.636719 271.199219 383.28125 C 269.386719 384.921875 267.535156 386.519531 265.644531 388.074219 C 263.753906 389.625 261.824219 391.128906 259.859375 392.585938 C 257.894531 394.042969 255.894531 395.453125 253.863281 396.8125 C 251.828125 398.171875 249.761719 399.476562 247.664062 400.734375 C 245.566406 401.992188 243.4375 403.199219 241.277344 404.351562 C 239.121094 405.503906 236.9375 406.605469 234.726562 407.652344 C 232.515625 408.695312 230.277344 409.6875 228.019531 410.625 C 225.757812 411.558594 223.476562 412.441406 221.171875 413.265625 C 218.871094 414.089844 216.546875 414.855469 214.207031 415.566406 C 211.867188 416.277344 209.507812 416.929688 207.136719 417.523438 C 204.761719 418.117188 202.375 418.652344 199.976562 419.128906 C 197.578125 419.609375 195.167969 420.027344 192.75 420.386719 C 190.328125 420.742188 187.902344 421.042969 185.46875 421.28125 C 183.03125 421.523438 180.59375 421.703125 178.148438 421.824219 C 175.707031 421.941406 173.261719 422.003906 170.816406 422.003906 C 168.367188 422.003906 165.925781 421.941406 163.480469 421.824219 C 161.039062 421.703125 158.597656 421.523438 156.164062 421.28125 C 153.730469 421.042969 151.300781 420.742188 148.882812 420.386719 C 146.460938 420.027344 144.054688 419.609375 141.652344 419.128906 C 139.253906 418.652344 136.867188 418.117188 134.496094 417.523438 C 132.121094 416.929688 129.765625 416.277344 127.425781 415.566406 C 125.082031 414.855469 122.761719 414.089844 120.457031 413.265625 C 118.152344 412.441406 115.871094 411.558594 113.613281 410.625 C 111.351562 409.6875 109.117188 408.695312 106.90625 407.652344 C 104.695312 406.605469 102.507812 405.503906 100.351562 404.351562 C 98.195312 403.199219 96.066406 401.992188 93.96875 400.734375 C 91.871094 399.476562 89.804688 398.171875 87.769531 396.8125 C 85.734375 395.453125 83.734375 394.042969 81.769531 392.585938 C 79.804688 391.128906 77.878906 389.625 75.988281 388.074219 C 74.097656 386.519531 72.242188 384.921875 70.429688 383.28125 C 68.617188 381.636719 66.847656 379.949219 65.117188 378.222656 C 63.386719 376.492188 61.703125 374.71875 60.058594 372.90625 C 58.414062 371.09375 56.820312 369.242188 55.265625 367.351562 C 53.714844 365.460938 52.210938 363.53125 50.753906 361.566406 C 49.296875 359.601562 47.886719 357.605469 46.527344 355.570312 C 45.167969 353.535156 43.859375 351.46875 42.601562 349.371094 C 41.34375 347.273438 40.140625 345.144531 38.988281 342.988281 C 37.832031 340.832031 36.734375 338.644531 35.6875 336.433594 C 34.640625 334.222656 33.652344 331.988281 32.714844 329.726562 C 31.777344 327.464844 30.898438 325.183594 30.074219 322.882812 C 29.25 320.578125 28.484375 318.257812 27.773438 315.914062 C 27.0625 313.574219 26.410156 311.21875 25.816406 308.84375 C 25.222656 306.472656 24.6875 304.085938 24.207031 301.6875 C 23.730469 299.285156 23.3125 296.875 22.953125 294.457031 C 22.59375 292.035156 22.296875 289.609375 22.054688 287.175781 C 21.816406 284.742188 21.636719 282.300781 21.515625 279.859375 C 21.394531 277.414062 21.335938 274.96875 21.335938 272.523438 C 21.335938 270.078125 21.394531 267.632812 21.515625 265.1875 C 21.636719 262.746094 21.816406 260.308594 22.054688 257.871094 C 22.296875 255.4375 22.59375 253.011719 22.953125 250.589844 C 23.3125 248.171875 23.730469 245.761719 24.207031 243.363281 C 24.6875 240.960938 25.222656 238.578125 25.816406 236.203125 C 26.410156 233.832031 27.0625 231.472656 27.773438 229.132812 C 28.484375 226.792969 29.25 224.46875 30.074219 222.164062 C 30.898438 219.863281 31.777344 217.582031 32.714844 215.320312 C 33.652344 213.0625 34.640625 210.824219 35.6875 208.613281 C 36.734375 206.402344 37.832031 204.21875 38.988281 202.058594 C 40.140625 199.902344 41.34375 197.773438 42.601562 195.675781 C 43.859375 193.578125 45.167969 191.511719 46.527344 189.476562 C 47.886719 187.445312 49.296875 185.445312 50.753906 183.480469 C 52.210938 181.515625 53.714844 179.585938 55.265625 177.695312 C 56.820312 175.804688 58.414062 173.953125 60.058594 172.140625 C 61.703125 170.328125 63.386719 168.554688 65.117188 166.828125 C 66.847656 165.097656 68.617188 163.410156 70.429688 161.765625 C 72.242188 160.125 74.097656 158.527344 75.988281 156.976562 C 77.878906 155.421875 79.804688 153.917969 81.769531 152.460938 C 83.734375 151.003906 85.734375 149.597656 87.769531 148.238281 C 89.804688 146.878906 91.871094 145.570312 93.96875 144.3125 C 96.066406 143.054688 98.195312 141.847656 100.351562 140.695312 C 102.507812 139.542969 104.695312 138.441406 106.90625 137.394531 C 109.117188 136.351562 111.351562 135.359375 113.613281 134.421875 C 115.871094 133.488281 118.152344 132.605469 120.457031 131.78125 C 122.761719 130.957031 125.082031 130.191406 127.425781 129.480469 C 129.765625 128.769531 132.121094 128.117188 134.496094 127.523438 C 136.867188 126.929688 139.253906 126.394531 141.652344 125.917969 C 144.054688 125.441406 146.460938 125.023438 148.882812 124.664062 C 151.300781 124.304688 153.730469 124.003906 156.164062 123.765625 C 158.597656 123.523438 161.039062 123.34375 163.480469 123.226562 C 165.925781 123.105469 168.367188 123.042969 170.816406 123.042969 C 173.261719 123.042969 175.707031 123.105469 178.148438 123.226562 C 180.59375 123.34375 183.03125 123.523438 185.46875 123.765625 C 187.902344 124.003906 190.328125 124.304688 192.75 124.664062 C 195.167969 125.023438 197.578125 125.441406 199.976562 125.917969 C 202.375 126.394531 204.761719 126.929688 207.136719 127.523438 C 209.507812 128.117188 211.867188 128.769531 214.207031 129.480469 C 216.546875 130.191406 218.871094 130.957031 221.171875 131.78125 C 223.476562 132.605469 225.757812 133.488281 228.019531 134.421875 C 230.277344 135.359375 232.515625 136.351562 234.726562 137.394531 C 236.9375 138.441406 239.121094 139.542969 241.277344 140.695312 C 243.4375 141.847656 245.566406 143.054688 247.664062 144.3125 C 249.761719 145.570312 251.828125 146.878906 253.863281 148.238281 C 255.894531 149.597656 257.894531 151.003906 259.859375 152.460938 C 261.824219 153.917969 263.753906 155.421875 265.644531 156.976562 C 267.535156 158.527344 269.386719 160.125 271.199219 161.765625 C 273.011719 163.410156 274.78125 165.097656 276.511719 166.828125 C 278.242188 168.554688 279.929688 170.328125 281.570312 172.140625 C 283.214844 173.953125 284.8125 175.804688 286.363281 177.695312 C 287.914062 179.585938 289.421875 181.515625 290.878906 183.480469 C 292.335938 185.445312 293.742188 187.445312 295.101562 189.476562 C 296.460938 191.511719 297.769531 193.578125 299.027344 195.675781 C 300.285156 197.773438 301.492188 199.902344 302.644531 202.058594 C 303.796875 204.21875 304.898438 206.402344 305.941406 208.613281 C 306.988281 210.824219 307.980469 213.0625 308.914062 215.320312 C 309.851562 217.582031 310.730469 219.863281 311.554688 222.164062 C 312.378906 224.46875 313.148438 226.792969 313.859375 229.132812 C 314.566406 231.472656 315.21875 233.832031 315.816406 236.203125 C 316.410156 238.578125 316.945312 240.960938 317.421875 243.363281 C 317.898438 245.761719 318.316406 248.171875 318.675781 250.589844 C 319.035156 253.011719 319.335938 255.4375 319.574219 257.871094 C 319.8125 260.308594 319.996094 262.746094 320.113281 265.1875 C 320.234375 267.632812 320.292969 270.078125 320.292969 272.523438 Z M 320.292969 272.523438 " fill-opacity="1" fill-rule="nonzero"/></g><path fill="#ffffff" d="M 105.042969 356.410156 L 237.003906 356.410156 C 238.679688 356.410156 239.996094 355.097656 239.996094 353.421875 C 239.996094 351.746094 238.679688 350.433594 237.003906 350.433594 L 230.007812 350.433594 L 230.007812 296.320312 C 230.007812 294.648438 228.695312 293.332031 227.019531 293.332031 C 225.34375 293.332031 224.03125 294.648438 224.03125 296.320312 L 224.03125 321.3125 L 199.636719 321.3125 C 197.960938 321.3125 196.824219 322.6875 196.824219 324.363281 L 196.824219 350.433594 L 174.042969 350.433594 L 174.042969 232.464844 L 168.066406 232.464844 L 168.066406 350.433594 L 145.285156 350.433594 L 145.285156 324.363281 C 145.285156 322.6875 144.089844 321.3125 142.472656 321.3125 L 118.078125 321.3125 L 118.078125 296.320312 C 118.078125 294.648438 116.765625 293.332031 115.089844 293.332031 C 113.414062 293.332031 112.101562 294.648438 112.101562 296.320312 L 112.101562 350.433594 L 105.042969 350.433594 C 103.371094 350.433594 102.054688 351.746094 102.054688 353.421875 C 102.054688 355.097656 103.371094 356.410156 105.042969 356.410156 Z M 202.742188 327.292969 L 224.03125 327.292969 L 224.03125 350.433594 L 202.742188 350.433594 Z M 118.019531 327.292969 L 139.304688 327.292969 L 139.304688 350.433594 L 118.019531 350.433594 Z M 118.019531 327.292969 " fill-opacity="1" fill-rule="nonzero"/><path fill="#ffffff" d="M 223.910156 229.472656 L 179.722656 192.882812 L 197.542969 229.472656 Z M 223.910156 229.472656 " fill-opacity="1" fill-rule="nonzero"/><path fill="#ffffff" d="M 190.90625 229.472656 L 170.996094 188.578125 L 151.085938 229.472656 Z M 190.90625 229.472656 " fill-opacity="1" fill-rule="nonzero"/><path fill="#ffffff" d="M 162.265625 192.941406 L 118.078125 229.472656 L 144.445312 229.472656 Z M 162.265625 192.941406 " fill-opacity="1" fill-rule="nonzero"/><g fill="#000000" fill-opacity="1"><g transform="translate(379.639219, 359.175823)"><g><path d="M 58.703125 2.859375 C 49.054688 2.859375 40.679688 1.085938 33.578125 -2.453125 C 26.484375 -6.003906 21.023438 -11.210938 17.203125 -18.078125 C 13.378906 -24.953125 11.46875 -33.21875 11.46875 -42.875 C 11.46875 -51.789062 13.378906 -59.273438 17.203125 -65.328125 C 21.023438 -71.378906 26.941406 -76.335938 34.953125 -80.203125 C 42.960938 -84.078125 53.425781 -87.054688 66.34375 -89.140625 C 75.351562 -90.597656 82.203125 -92.191406 86.890625 -93.921875 C 91.578125 -95.648438 94.738281 -97.609375 96.375 -99.796875 C 98.019531 -101.984375 98.84375 -104.757812 98.84375 -108.125 C 98.84375 -112.945312 97.15625 -116.628906 93.78125 -119.171875 C 90.414062 -121.722656 84.820312 -123 77 -123 C 68.625 -123 60.660156 -121.132812 53.109375 -117.40625 C 45.554688 -113.675781 39.003906 -108.757812 33.453125 -102.65625 L 30.71875 -102.65625 L 14.875 -126.546875 C 22.519531 -135.015625 31.847656 -141.613281 42.859375 -146.34375 C 53.878906 -151.082031 65.894531 -153.453125 78.90625 -153.453125 C 98.84375 -153.453125 113.269531 -149.21875 122.1875 -140.75 C 131.101562 -132.289062 135.5625 -120.28125 135.5625 -104.71875 L 135.5625 -39.3125 C 135.5625 -32.582031 138.519531 -29.21875 144.4375 -29.21875 C 146.71875 -29.21875 148.945312 -29.625 151.125 -30.4375 L 153.046875 -29.890625 L 155.765625 -3.546875 C 153.671875 -2.179688 150.757812 -1.066406 147.03125 -0.203125 C 143.300781 0.660156 139.207031 1.09375 134.75 1.09375 C 125.738281 1.09375 118.707031 -0.632812 113.65625 -4.09375 C 108.601562 -7.550781 104.984375 -12.96875 102.796875 -20.34375 L 99.9375 -20.609375 C 92.5625 -4.960938 78.816406 2.859375 58.703125 2.859375 Z M 70.71875 -25.390625 C 79.457031 -25.390625 86.441406 -28.320312 91.671875 -34.1875 C 96.898438 -40.0625 99.515625 -48.234375 99.515625 -58.703125 L 99.515625 -74 L 96.921875 -74.546875 C 94.648438 -72.722656 91.671875 -71.195312 87.984375 -69.96875 C 84.296875 -68.738281 78.992188 -67.53125 72.078125 -66.34375 C 63.890625 -64.976562 58 -62.632812 54.40625 -59.3125 C 50.8125 -55.988281 49.015625 -51.28125 49.015625 -45.1875 C 49.015625 -38.726562 50.925781 -33.8125 54.75 -30.4375 C 58.570312 -27.070312 63.894531 -25.390625 70.71875 -25.390625 Z M 70.71875 -25.390625 "/></g></g></g><g fill="#000000" fill-opacity="1"><g transform="translate(513.25022, 359.175823)"><g><path d="M 74.40625 2.859375 C 62.476562 2.859375 51.941406 -0.0234375 42.796875 -5.796875 C 33.648438 -11.578125 26.484375 -20.316406 21.296875 -32.015625 C 16.109375 -43.710938 13.515625 -58.113281 13.515625 -75.21875 C 13.515625 -92.425781 16.175781 -106.875 21.5 -118.5625 C 26.820312 -130.257812 34.191406 -139 43.609375 -144.78125 C 53.035156 -150.5625 63.9375 -153.453125 76.3125 -153.453125 C 85.6875 -153.453125 93.804688 -151.832031 100.671875 -148.59375 C 107.546875 -145.363281 113.351562 -140.335938 118.09375 -133.515625 L 120.953125 -134.203125 L 120.953125 -211.0625 L 158.765625 -211.0625 L 158.765625 0 L 120.953125 0 L 120.953125 -19.515625 L 118.09375 -20.0625 C 113.90625 -12.96875 108.171875 -7.375 100.890625 -3.28125 C 93.609375 0.8125 84.78125 2.859375 74.40625 2.859375 Z M 86.6875 -29.21875 C 97.332031 -29.21875 105.75 -33.015625 111.9375 -40.609375 C 118.132812 -48.210938 121.234375 -59.75 121.234375 -75.21875 C 121.234375 -90.695312 118.132812 -102.253906 111.9375 -109.890625 C 105.75 -117.535156 97.332031 -121.359375 86.6875 -121.359375 C 75.582031 -121.359375 67.09375 -117.648438 61.21875 -110.234375 C 55.351562 -102.816406 52.421875 -91.144531 52.421875 -75.21875 C 52.421875 -59.382812 55.351562 -47.757812 61.21875 -40.34375 C 67.09375 -32.925781 75.582031 -29.21875 86.6875 -29.21875 Z M 86.6875 -29.21875 "/></g></g></g><g fill="#000000" fill-opacity="1"><g transform="translate(668.568183, 359.175823)"><g><path d="M 74.40625 2.859375 C 62.476562 2.859375 51.941406 -0.0234375 42.796875 -5.796875 C 33.648438 -11.578125 26.484375 -20.316406 21.296875 -32.015625 C 16.109375 -43.710938 13.515625 -58.113281 13.515625 -75.21875 C 13.515625 -92.425781 16.175781 -106.875 21.5 -118.5625 C 26.820312 -130.257812 34.191406 -139 43.609375 -144.78125 C 53.035156 -150.5625 63.9375 -153.453125 76.3125 -153.453125 C 85.6875 -153.453125 93.804688 -151.832031 100.671875 -148.59375 C 107.546875 -145.363281 113.351562 -140.335938 118.09375 -133.515625 L 120.953125 -134.203125 L 120.953125 -211.0625 L 158.765625 -211.0625 L 158.765625 0 L 120.953125 0 L 120.953125 -19.515625 L 118.09375 -20.0625 C 113.90625 -12.96875 108.171875 -7.375 100.890625 -3.28125 C 93.609375 0.8125 84.78125 2.859375 74.40625 2.859375 Z M 86.6875 -29.21875 C 97.332031 -29.21875 105.75 -33.015625 111.9375 -40.609375 C 118.132812 -48.210938 121.234375 -59.75 121.234375 -75.21875 C 121.234375 -90.695312 118.132812 -102.253906 111.9375 -109.890625 C 105.75 -117.535156 97.332031 -121.359375 86.6875 -121.359375 C 75.582031 -121.359375 67.09375 -117.648438 61.21875 -110.234375 C 55.351562 -102.816406 52.421875 -91.144531 52.421875 -75.21875 C 52.421875 -59.382812 55.351562 -47.757812 61.21875 -40.34375 C 67.09375 -32.925781 75.582031 -29.21875 86.6875 -29.21875 Z M 86.6875 -29.21875 "/></g></g></g><g fill="#000000" fill-opacity="1"><g transform="translate(823.886167, 359.175823)"><g><path d="M 58.703125 2.859375 C 49.054688 2.859375 40.679688 1.085938 33.578125 -2.453125 C 26.484375 -6.003906 21.023438 -11.210938 17.203125 -18.078125 C 13.378906 -24.953125 11.46875 -33.21875 11.46875 -42.875 C 11.46875 -51.789062 13.378906 -59.273438 17.203125 -65.328125 C 21.023438 -71.378906 26.941406 -76.335938 34.953125 -80.203125 C 42.960938 -84.078125 53.425781 -87.054688 66.34375 -89.140625 C 75.351562 -90.597656 82.203125 -92.191406 86.890625 -93.921875 C 91.578125 -95.648438 94.738281 -97.609375 96.375 -99.796875 C 98.019531 -101.984375 98.84375 -104.757812 98.84375 -108.125 C 98.84375 -112.945312 97.15625 -116.628906 93.78125 -119.171875 C 90.414062 -121.722656 84.820312 -123 77 -123 C 68.625 -123 60.660156 -121.132812 53.109375 -117.40625 C 45.554688 -113.675781 39.003906 -108.757812 33.453125 -102.65625 L 30.71875 -102.65625 L 14.875 -126.546875 C 22.519531 -135.015625 31.847656 -141.613281 42.859375 -146.34375 C 53.878906 -151.082031 65.894531 -153.453125 78.90625 -153.453125 C 98.84375 -153.453125 113.269531 -149.21875 122.1875 -140.75 C 131.101562 -132.289062 135.5625 -120.28125 135.5625 -104.71875 L 135.5625 -39.3125 C 135.5625 -32.582031 138.519531 -29.21875 144.4375 -29.21875 C 146.71875 -29.21875 148.945312 -29.625 151.125 -30.4375 L 153.046875 -29.890625 L 155.765625 -3.546875 C 153.671875 -2.179688 150.757812 -1.066406 147.03125 -0.203125 C 143.300781 0.660156 139.207031 1.09375 134.75 1.09375 C 125.738281 1.09375 118.707031 -0.632812 113.65625 -4.09375 C 108.601562 -7.550781 104.984375 -12.96875 102.796875 -20.34375 L 99.9375 -20.609375 C 92.5625 -4.960938 78.816406 2.859375 58.703125 2.859375 Z M 70.71875 -25.390625 C 79.457031 -25.390625 86.441406 -28.320312 91.671875 -34.1875 C 96.898438 -40.0625 99.515625 -48.234375 99.515625 -58.703125 L 99.515625 -74 L 96.921875 -74.546875 C 94.648438 -72.722656 91.671875 -71.195312 87.984375 -69.96875 C 84.296875 -68.738281 78.992188 -67.53125 72.078125 -66.34375 C 63.890625 -64.976562 58 -62.632812 54.40625 -59.3125 C 50.8125 -55.988281 49.015625 -51.28125 49.015625 -45.1875 C 49.015625 -38.726562 50.925781 -33.8125 54.75 -30.4375 C 58.570312 -27.070312 63.894531 -25.390625 70.71875 -25.390625 Z M 70.71875 -25.390625 "/></g></g></g><g fill="#000000" fill-opacity="1"><g transform="translate(957.497147, 359.175823)"><g><path d="M 21.703125 0 L 21.703125 -150.578125 L 58.015625 -150.578125 L 58.015625 -130.375 L 60.890625 -129.828125 C 65.804688 -137.929688 71.5625 -143.894531 78.15625 -147.71875 C 84.757812 -151.539062 93.203125 -153.453125 103.484375 -153.453125 C 114.859375 -153.453125 124.003906 -151.195312 130.921875 -146.6875 C 137.835938 -142.1875 142.890625 -135.613281 146.078125 -126.96875 L 148.9375 -126.96875 C 153.582031 -135.976562 159.566406 -142.644531 166.890625 -146.96875 C 174.222656 -151.289062 183.347656 -153.453125 194.265625 -153.453125 C 225.484375 -153.453125 241.09375 -136.066406 241.09375 -101.296875 L 241.09375 0 L 203.28125 0 L 203.28125 -96.515625 C 203.28125 -105.347656 201.550781 -111.71875 198.09375 -115.625 C 194.632812 -119.539062 189.082031 -121.5 181.4375 -121.5 C 160.6875 -121.5 150.3125 -107.617188 150.3125 -79.859375 L 150.3125 0 L 112.5 0 L 112.5 -96.515625 C 112.5 -105.347656 110.742188 -111.71875 107.234375 -115.625 C 103.734375 -119.539062 98.160156 -121.5 90.515625 -121.5 C 80.773438 -121.5 73.171875 -118.242188 67.703125 -111.734375 C 62.242188 -105.234375 59.515625 -94.882812 59.515625 -80.6875 L 59.515625 0 Z M 21.703125 0 "/></g></g></g><g fill="#000000" fill-opacity="1"><g transform="translate(1192.816977, 359.175823)"><g><path d="M 103.890625 -35.90625 L 113.71875 -7.921875 C 109.625 -4.546875 104.484375 -1.90625 98.296875 0 C 92.109375 1.90625 85.097656 2.859375 77.265625 2.859375 C 60.972656 2.859375 48.59375 -1.570312 40.125 -10.4375 C 31.664062 -19.3125 27.4375 -32.210938 27.4375 -49.140625 L 27.4375 -120.6875 L 4.5 -120.6875 L 4.5 -150.71875 L 27.4375 -150.71875 L 27.4375 -180.078125 L 65.25 -186.21875 L 65.25 -150.71875 L 107.984375 -150.71875 L 107.984375 -120.6875 L 65.25 -120.6875 L 65.25 -51.875 C 65.25 -44.414062 66.796875 -38.976562 69.890625 -35.5625 C 72.992188 -32.144531 77.5 -30.4375 83.40625 -30.4375 C 90.144531 -30.4375 96.019531 -32.257812 101.03125 -35.90625 Z M 103.890625 -35.90625 "/></g></g></g><g fill="#000000" fill-opacity="1"><g transform="translate(1284.652281, 359.175823)"><g><path d="M 87.515625 2.859375 C 72.765625 2.859375 59.816406 -0.164062 48.671875 -6.21875 C 37.523438 -12.269531 28.878906 -21.140625 22.734375 -32.828125 C 16.585938 -44.523438 13.515625 -58.65625 13.515625 -75.21875 C 13.515625 -91.78125 16.585938 -105.929688 22.734375 -117.671875 C 28.878906 -129.421875 37.523438 -138.320312 48.671875 -144.375 C 59.816406 -150.425781 72.765625 -153.453125 87.515625 -153.453125 C 102.253906 -153.453125 115.195312 -150.425781 126.34375 -144.375 C 137.5 -138.320312 146.171875 -129.421875 152.359375 -117.671875 C 158.546875 -105.929688 161.640625 -91.78125 161.640625 -75.21875 C 161.640625 -58.65625 158.546875 -44.523438 152.359375 -32.828125 C 146.171875 -21.140625 137.5 -12.269531 126.34375 -6.21875 C 115.195312 -0.164062 102.253906 2.859375 87.515625 2.859375 Z M 87.515625 -29.21875 C 110.898438 -29.21875 122.59375 -44.550781 122.59375 -75.21875 C 122.59375 -91.144531 119.585938 -102.816406 113.578125 -110.234375 C 107.578125 -117.648438 98.890625 -121.359375 87.515625 -121.359375 C 64.117188 -121.359375 52.421875 -105.976562 52.421875 -75.21875 C 52.421875 -44.550781 64.117188 -29.21875 87.515625 -29.21875 Z M 87.515625 -29.21875 "/></g></g></g><g fill="#000000" fill-opacity="1"><g transform="translate(1434.50939, 359.175823)"><g><path d="M 68.9375 2.859375 C 52.007812 2.859375 39.519531 -1.753906 31.46875 -10.984375 C 23.414062 -20.222656 19.390625 -33.488281 19.390625 -50.78125 L 19.390625 -150.578125 L 57.203125 -150.578125 L 57.203125 -55.5625 C 57.203125 -46.375 59.179688 -39.660156 63.140625 -35.421875 C 67.097656 -31.191406 73.21875 -29.078125 81.5 -29.078125 C 91.96875 -29.078125 100.113281 -32.507812 105.9375 -39.375 C 111.757812 -46.25 114.671875 -57.0625 114.671875 -71.8125 L 114.671875 -150.578125 L 152.5 -150.578125 L 152.5 0 L 116.171875 0 L 116.171875 -22.109375 L 113.3125 -22.796875 C 108.488281 -14.148438 102.59375 -7.710938 95.625 -3.484375 C 88.664062 0.742188 79.769531 2.859375 68.9375 2.859375 Z M 68.9375 2.859375 "/></g></g></g><g fill="#000000" fill-opacity="1"><g transform="translate(1583.54735, 359.175823)"><g><path d="M 21.703125 0 L 21.703125 -150.578125 L 58.4375 -150.578125 L 58.4375 -128.1875 L 61.296875 -127.640625 C 64.941406 -136.015625 69.71875 -142.160156 75.625 -146.078125 C 81.539062 -149.992188 88.734375 -151.953125 97.203125 -151.953125 C 105.753906 -151.953125 112.257812 -150.492188 116.71875 -147.578125 L 110.3125 -114.953125 L 107.4375 -114.40625 C 104.976562 -115.40625 102.609375 -116.128906 100.328125 -116.578125 C 98.054688 -117.035156 95.285156 -117.265625 92.015625 -117.265625 C 81.453125 -117.265625 73.394531 -113.554688 67.84375 -106.140625 C 62.289062 -98.722656 59.515625 -86.820312 59.515625 -70.4375 L 59.515625 0 Z M 21.703125 0 "/></g></g></g><g fill="#000000" fill-opacity="1"><g transform="translate(1676.474794, 359.175823)"><g><path d="M 70.4375 2.859375 C 60.15625 2.859375 50.738281 1.65625 42.1875 -0.75 C 33.632812 -3.164062 26.328125 -6.488281 20.265625 -10.71875 C 14.210938 -14.945312 9.734375 -19.789062 6.828125 -25.25 L 27.84375 -47.921875 L 30.71875 -47.921875 C 35.71875 -41.179688 41.628906 -36.128906 48.453125 -32.765625 C 55.285156 -29.398438 62.707031 -27.71875 70.71875 -27.71875 C 78.09375 -27.71875 83.644531 -29.035156 87.375 -31.671875 C 91.101562 -34.304688 92.96875 -38.082031 92.96875 -43 C 92.96875 -46.820312 91.625 -50.03125 88.9375 -52.625 C 86.257812 -55.21875 81.914062 -57.242188 75.90625 -58.703125 L 55.96875 -63.484375 C 41.039062 -67.035156 30.140625 -72.472656 23.265625 -79.796875 C 16.398438 -87.117188 12.96875 -96.425781 12.96875 -107.71875 C 12.96875 -117.09375 15.351562 -125.238281 20.125 -132.15625 C 24.90625 -139.070312 31.640625 -144.347656 40.328125 -147.984375 C 49.023438 -151.628906 59.15625 -153.453125 70.71875 -153.453125 C 84.28125 -153.453125 95.519531 -151.492188 104.4375 -147.578125 C 113.351562 -143.660156 120.316406 -138.425781 125.328125 -131.875 L 105.125 -110.03125 L 102.390625 -110.03125 C 98.203125 -114.769531 93.488281 -118.226562 88.25 -120.40625 C 83.019531 -122.59375 77.175781 -123.6875 70.71875 -123.6875 C 55.789062 -123.6875 48.328125 -119.046875 48.328125 -109.765625 C 48.328125 -105.847656 49.710938 -102.660156 52.484375 -100.203125 C 55.265625 -97.742188 60.160156 -95.742188 67.171875 -94.203125 L 85.734375 -90.109375 C 101.023438 -86.828125 112.195312 -81.566406 119.25 -74.328125 C 126.300781 -67.097656 129.828125 -57.382812 129.828125 -45.1875 C 129.828125 -35.632812 127.457031 -27.21875 122.71875 -19.9375 C 117.988281 -12.65625 111.164062 -7.035156 102.25 -3.078125 C 93.332031 0.878906 82.726562 2.859375 70.4375 2.859375 Z M 70.4375 2.859375 "/></g></g></g></svg>