<svg xmlns="http://www.w3.org/2000/svg" xmlns:xlink="http://www.w3.org/1999/xlink" width="2500" zoomAndPan="magnify" viewBox="0 0 1874.88 749.999995" height="1000" preserveAspectRatio="xMidYMid meet" version="1.0"><defs><g/><clipPath id="29353a9210"><path d="M 78 228.007812 L 331 228.007812 L 331 390 L 78 390 Z M 78 228.007812 " clip-rule="nonzero"/></clipPath><clipPath id="70766ab55b"><path d="M 87 357 L 379 357 L 379 527.988281 L 87 527.988281 Z M 87 357 " clip-rule="nonzero"/></clipPath><clipPath id="ff2cbc3a0c"><path d="M 50.621094 321 L 310 321 L 310 425 L 50.621094 425 Z M 50.621094 321 " clip-rule="nonzero"/></clipPath></defs><g fill="#ffffff" fill-opacity="1"><g transform="translate(513.45146, 359.411956)"><g><path d="M 50.375 2.046875 C 43.019531 2.046875 36.28125 1.1875 30.15625 -0.53125 C 24.039062 -2.257812 18.816406 -4.632812 14.484375 -7.65625 C 10.160156 -10.6875 6.957031 -14.15625 4.875 -18.0625 L 19.921875 -34.265625 L 21.96875 -34.265625 C 25.539062 -29.453125 29.769531 -25.835938 34.65625 -23.421875 C 39.539062 -21.015625 44.84375 -19.8125 50.5625 -19.8125 C 55.84375 -19.8125 59.816406 -20.753906 62.484375 -22.640625 C 65.148438 -24.535156 66.484375 -27.238281 66.484375 -30.75 C 66.484375 -33.488281 65.519531 -35.785156 63.59375 -37.640625 C 61.675781 -39.492188 58.570312 -40.941406 54.28125 -41.984375 L 40.03125 -45.390625 C 29.351562 -47.929688 21.554688 -51.820312 16.640625 -57.0625 C 11.734375 -62.300781 9.28125 -68.957031 9.28125 -77.03125 C 9.28125 -83.726562 10.988281 -89.550781 14.40625 -94.5 C 17.820312 -99.445312 22.632812 -103.222656 28.84375 -105.828125 C 35.0625 -108.429688 42.300781 -109.734375 50.5625 -109.734375 C 60.257812 -109.734375 68.296875 -108.332031 74.671875 -105.53125 C 81.054688 -102.726562 86.039062 -98.988281 89.625 -94.3125 L 75.171875 -78.6875 L 73.21875 -78.6875 C 70.226562 -82.070312 66.859375 -84.546875 63.109375 -86.109375 C 59.367188 -87.671875 55.1875 -88.453125 50.5625 -88.453125 C 39.894531 -88.453125 34.5625 -85.128906 34.5625 -78.484375 C 34.5625 -75.691406 35.550781 -73.414062 37.53125 -71.65625 C 39.519531 -69.894531 43.019531 -68.460938 48.03125 -67.359375 L 61.3125 -64.4375 C 72.238281 -62.09375 80.222656 -58.332031 85.265625 -53.15625 C 90.316406 -47.976562 92.84375 -41.03125 92.84375 -32.3125 C 92.84375 -25.476562 91.148438 -19.457031 87.765625 -14.25 C 84.378906 -9.039062 79.492188 -5.019531 73.109375 -2.1875 C 66.734375 0.632812 59.15625 2.046875 50.375 2.046875 Z M 50.375 2.046875 "/></g></g></g><g fill="#ffffff" fill-opacity="1"><g transform="translate(594.745235, 359.411956)"><g><path d="M 49.296875 2.046875 C 37.191406 2.046875 28.257812 -1.253906 22.5 -7.859375 C 16.738281 -14.460938 13.859375 -23.945312 13.859375 -36.3125 L 13.859375 -107.6875 L 40.90625 -107.6875 L 40.90625 -39.734375 C 40.90625 -33.160156 42.320312 -28.359375 45.15625 -25.328125 C 47.988281 -22.304688 52.363281 -20.796875 58.28125 -20.796875 C 65.769531 -20.796875 71.59375 -23.25 75.75 -28.15625 C 79.914062 -33.070312 82 -40.800781 82 -51.34375 L 82 -107.6875 L 109.046875 -107.6875 L 109.046875 0 L 83.078125 0 L 83.078125 -15.8125 L 81.03125 -16.296875 C 77.582031 -10.117188 73.367188 -5.515625 68.390625 -2.484375 C 63.410156 0.535156 57.046875 2.046875 49.296875 2.046875 Z M 49.296875 2.046875 "/></g></g></g><g fill="#ffffff" fill-opacity="1"><g transform="translate(701.324995, 359.411956)"><g><path d="M 57.796875 0 L 29.484375 0 L 3.90625 -107.6875 L 29 -107.6875 L 44.8125 -34.859375 L 46.859375 -34.859375 L 67.359375 -107.6875 L 90.796875 -107.6875 L 111.984375 -34.859375 L 114.03125 -34.859375 L 129.25 -107.6875 L 153.65625 -107.6875 L 128.375 0 L 99.96875 0 L 79.5625 -73.3125 L 77.515625 -73.3125 Z M 57.796875 0 "/></g></g></g><g fill="#ffffff" fill-opacity="1"><g transform="translate(840.80581, 359.411956)"><g><path d="M 29 -120.5625 C 24.113281 -120.5625 20.140625 -122.039062 17.078125 -125 C 14.023438 -127.96875 12.5 -131.796875 12.5 -136.484375 C 12.5 -141.097656 14.023438 -144.882812 17.078125 -147.84375 C 20.140625 -150.8125 24.113281 -152.296875 29 -152.296875 C 32.25 -152.296875 35.140625 -151.613281 37.671875 -150.25 C 40.210938 -148.882812 42.179688 -147.007812 43.578125 -144.625 C 44.984375 -142.25 45.6875 -139.535156 45.6875 -136.484375 C 45.6875 -133.421875 44.984375 -130.6875 43.578125 -128.28125 C 42.179688 -125.875 40.210938 -123.984375 37.671875 -122.609375 C 35.140625 -121.242188 32.25 -120.5625 29 -120.5625 Z M 15.515625 0 L 15.515625 -107.6875 L 42.5625 -107.6875 L 42.5625 0 Z M 15.515625 0 "/></g></g></g><g fill="#ffffff" fill-opacity="1"><g transform="translate(880.802409, 359.411956)"><g><path d="M 53.203125 2.046875 C 44.679688 2.046875 37.148438 -0.015625 30.609375 -4.140625 C 24.066406 -8.273438 18.941406 -14.523438 15.234375 -22.890625 C 11.523438 -31.253906 9.671875 -41.554688 9.671875 -53.796875 C 9.671875 -66.097656 11.570312 -76.425781 15.375 -84.78125 C 19.1875 -93.144531 24.457031 -99.394531 31.1875 -103.53125 C 37.925781 -107.664062 45.722656 -109.734375 54.578125 -109.734375 C 61.273438 -109.734375 67.082031 -108.578125 72 -106.265625 C 76.914062 -103.953125 81.066406 -100.359375 84.453125 -95.484375 L 86.5 -95.96875 L 86.5 -150.921875 L 113.53125 -150.921875 L 113.53125 0 L 86.5 0 L 86.5 -13.953125 L 84.453125 -14.34375 C 81.453125 -9.269531 77.347656 -5.269531 72.140625 -2.34375 C 66.929688 0.582031 60.617188 2.046875 53.203125 2.046875 Z M 62 -20.890625 C 69.613281 -20.890625 75.628906 -23.609375 80.046875 -29.046875 C 84.472656 -34.484375 86.6875 -42.734375 86.6875 -53.796875 C 86.6875 -64.859375 84.472656 -73.125 80.046875 -78.59375 C 75.628906 -84.0625 69.613281 -86.796875 62 -86.796875 C 54.050781 -86.796875 47.976562 -84.140625 43.78125 -78.828125 C 39.582031 -73.523438 37.484375 -65.179688 37.484375 -53.796875 C 37.484375 -42.472656 39.582031 -34.15625 43.78125 -28.84375 C 47.976562 -23.539062 54.050781 -20.890625 62 -20.890625 Z M 62 -20.890625 "/></g></g></g><g fill="#ffffff" fill-opacity="1"><g transform="translate(991.873115, 359.411956)"><g><path d="M 41.984375 2.046875 C 35.078125 2.046875 29.085938 0.78125 24.015625 -1.75 C 18.941406 -4.289062 15.035156 -8.019531 12.296875 -12.9375 C 9.566406 -17.851562 8.203125 -23.757812 8.203125 -30.65625 C 8.203125 -37.03125 9.566406 -42.378906 12.296875 -46.703125 C 15.035156 -51.035156 19.265625 -54.582031 24.984375 -57.34375 C 30.710938 -60.113281 38.203125 -62.25 47.453125 -63.75 C 53.890625 -64.789062 58.785156 -65.925781 62.140625 -67.15625 C 65.492188 -68.394531 67.753906 -69.796875 68.921875 -71.359375 C 70.097656 -72.921875 70.6875 -74.90625 70.6875 -77.3125 C 70.6875 -80.769531 69.476562 -83.40625 67.0625 -85.21875 C 64.65625 -87.039062 60.65625 -87.953125 55.0625 -87.953125 C 49.070312 -87.953125 43.375 -86.617188 37.96875 -83.953125 C 32.570312 -81.285156 27.890625 -77.773438 23.921875 -73.421875 L 21.96875 -73.421875 L 10.640625 -90.5 C 16.109375 -96.550781 22.78125 -101.269531 30.65625 -104.65625 C 38.53125 -108.039062 47.117188 -109.734375 56.421875 -109.734375 C 70.679688 -109.734375 81 -106.707031 87.375 -100.65625 C 93.75 -94.601562 96.9375 -86.007812 96.9375 -74.875 L 96.9375 -28.109375 C 96.9375 -23.296875 99.050781 -20.890625 103.28125 -20.890625 C 104.914062 -20.890625 106.515625 -21.179688 108.078125 -21.765625 L 109.4375 -21.375 L 111.390625 -2.53125 C 109.890625 -1.5625 107.804688 -0.765625 105.140625 -0.140625 C 102.472656 0.472656 99.546875 0.78125 96.359375 0.78125 C 89.910156 0.78125 84.878906 -0.453125 81.265625 -2.921875 C 77.660156 -5.398438 75.078125 -9.273438 73.515625 -14.546875 L 71.46875 -14.734375 C 66.1875 -3.546875 56.359375 2.046875 41.984375 2.046875 Z M 50.5625 -18.15625 C 56.8125 -18.15625 61.804688 -20.253906 65.546875 -24.453125 C 69.296875 -28.648438 71.171875 -34.492188 71.171875 -41.984375 L 71.171875 -52.90625 L 69.3125 -53.296875 C 67.6875 -51.992188 65.554688 -50.90625 62.921875 -50.03125 C 60.285156 -49.15625 56.492188 -48.296875 51.546875 -47.453125 C 45.691406 -46.472656 41.476562 -44.796875 38.90625 -42.421875 C 36.332031 -40.046875 35.046875 -36.675781 35.046875 -32.3125 C 35.046875 -27.6875 36.410156 -24.171875 39.140625 -21.765625 C 41.878906 -19.359375 45.6875 -18.15625 50.5625 -18.15625 Z M 50.5625 -18.15625 "/></g></g></g><g fill="#ffffff" fill-opacity="1"><g transform="translate(513.45146, 498.903022)"><g><path d="M 74.296875 -25.671875 L 81.328125 -5.65625 C 78.390625 -3.25 74.707031 -1.363281 70.28125 0 C 65.863281 1.363281 60.851562 2.046875 55.25 2.046875 C 43.601562 2.046875 34.753906 -1.125 28.703125 -7.46875 C 22.648438 -13.8125 19.625 -23.035156 19.625 -35.140625 L 19.625 -86.296875 L 3.21875 -86.296875 L 3.21875 -107.78125 L 19.625 -107.78125 L 19.625 -128.765625 L 46.671875 -133.15625 L 46.671875 -107.78125 L 77.21875 -107.78125 L 77.21875 -86.296875 L 46.671875 -86.296875 L 46.671875 -37.09375 C 46.671875 -31.757812 47.773438 -27.867188 49.984375 -25.421875 C 52.191406 -22.984375 55.414062 -21.765625 59.65625 -21.765625 C 64.46875 -21.765625 68.664062 -23.066406 72.25 -25.671875 Z M 74.296875 -25.671875 "/></g></g></g><g fill="#ffffff" fill-opacity="1"><g transform="translate(579.124559, 498.903022)"><g><path d="M 62.578125 2.046875 C 52.035156 2.046875 42.773438 -0.113281 34.796875 -4.4375 C 26.828125 -8.769531 20.644531 -15.117188 16.25 -23.484375 C 11.863281 -31.847656 9.671875 -41.953125 9.671875 -53.796875 C 9.671875 -65.640625 11.863281 -75.757812 16.25 -84.15625 C 20.644531 -92.550781 26.828125 -98.910156 34.796875 -103.234375 C 42.773438 -107.566406 52.035156 -109.734375 62.578125 -109.734375 C 73.117188 -109.734375 82.375 -107.566406 90.34375 -103.234375 C 98.320312 -98.910156 104.523438 -92.550781 108.953125 -84.15625 C 113.378906 -75.757812 115.59375 -65.640625 115.59375 -53.796875 C 115.59375 -41.953125 113.378906 -31.847656 108.953125 -23.484375 C 104.523438 -15.117188 98.320312 -8.769531 90.34375 -4.4375 C 82.375 -0.113281 73.117188 2.046875 62.578125 2.046875 Z M 62.578125 -20.890625 C 79.304688 -20.890625 87.671875 -31.859375 87.671875 -53.796875 C 87.671875 -65.179688 85.519531 -73.523438 81.21875 -78.828125 C 76.925781 -84.140625 70.710938 -86.796875 62.578125 -86.796875 C 45.847656 -86.796875 37.484375 -75.796875 37.484375 -53.796875 C 37.484375 -31.859375 45.847656 -20.890625 62.578125 -20.890625 Z M 62.578125 -20.890625 "/></g></g></g><g fill="#ffffff" fill-opacity="1"><g transform="translate(686.290081, 498.903022)"><g><path d="M 49.296875 2.046875 C 37.191406 2.046875 28.257812 -1.253906 22.5 -7.859375 C 16.738281 -14.460938 13.859375 -23.945312 13.859375 -36.3125 L 13.859375 -107.6875 L 40.90625 -107.6875 L 40.90625 -39.734375 C 40.90625 -33.160156 42.320312 -28.359375 45.15625 -25.328125 C 47.988281 -22.304688 52.363281 -20.796875 58.28125 -20.796875 C 65.769531 -20.796875 71.59375 -23.25 75.75 -28.15625 C 79.914062 -33.070312 82 -40.800781 82 -51.34375 L 82 -107.6875 L 109.046875 -107.6875 L 109.046875 0 L 83.078125 0 L 83.078125 -15.8125 L 81.03125 -16.296875 C 77.582031 -10.117188 73.367188 -5.515625 68.390625 -2.484375 C 63.410156 0.535156 57.046875 2.046875 49.296875 2.046875 Z M 49.296875 2.046875 "/></g></g></g><g fill="#ffffff" fill-opacity="1"><g transform="translate(792.869841, 498.903022)"><g><path d="M 15.515625 0 L 15.515625 -107.6875 L 41.78125 -107.6875 L 41.78125 -91.671875 L 43.828125 -91.28125 C 46.429688 -97.269531 49.847656 -101.660156 54.078125 -104.453125 C 58.316406 -107.253906 63.460938 -108.65625 69.515625 -108.65625 C 75.628906 -108.65625 80.28125 -107.613281 83.46875 -105.53125 L 78.875 -82.203125 L 76.828125 -81.8125 C 75.078125 -82.53125 73.382812 -83.050781 71.75 -83.375 C 70.125 -83.695312 68.140625 -83.859375 65.796875 -83.859375 C 58.242188 -83.859375 52.484375 -81.207031 48.515625 -75.90625 C 44.546875 -70.601562 42.5625 -62.09375 42.5625 -50.375 L 42.5625 0 Z M 15.515625 0 "/></g></g></g><g fill="#ffffff" fill-opacity="1"><g transform="translate(859.323967, 498.903022)"><g/></g></g><g fill="#ffffff" fill-opacity="1"><g transform="translate(888.483729, 498.903022)"><g><path d="M 41.984375 2.046875 C 35.078125 2.046875 29.085938 0.78125 24.015625 -1.75 C 18.941406 -4.289062 15.035156 -8.019531 12.296875 -12.9375 C 9.566406 -17.851562 8.203125 -23.757812 8.203125 -30.65625 C 8.203125 -37.03125 9.566406 -42.378906 12.296875 -46.703125 C 15.035156 -51.035156 19.265625 -54.582031 24.984375 -57.34375 C 30.710938 -60.113281 38.203125 -62.25 47.453125 -63.75 C 53.890625 -64.789062 58.785156 -65.925781 62.140625 -67.15625 C 65.492188 -68.394531 67.753906 -69.796875 68.921875 -71.359375 C 70.097656 -72.921875 70.6875 -74.90625 70.6875 -77.3125 C 70.6875 -80.769531 69.476562 -83.40625 67.0625 -85.21875 C 64.65625 -87.039062 60.65625 -87.953125 55.0625 -87.953125 C 49.070312 -87.953125 43.375 -86.617188 37.96875 -83.953125 C 32.570312 -81.285156 27.890625 -77.773438 23.921875 -73.421875 L 21.96875 -73.421875 L 10.640625 -90.5 C 16.109375 -96.550781 22.78125 -101.269531 30.65625 -104.65625 C 38.53125 -108.039062 47.117188 -109.734375 56.421875 -109.734375 C 70.679688 -109.734375 81 -106.707031 87.375 -100.65625 C 93.75 -94.601562 96.9375 -86.007812 96.9375 -74.875 L 96.9375 -28.109375 C 96.9375 -23.296875 99.050781 -20.890625 103.28125 -20.890625 C 104.914062 -20.890625 106.515625 -21.179688 108.078125 -21.765625 L 109.4375 -21.375 L 111.390625 -2.53125 C 109.890625 -1.5625 107.804688 -0.765625 105.140625 -0.140625 C 102.472656 0.472656 99.546875 0.78125 96.359375 0.78125 C 89.910156 0.78125 84.878906 -0.453125 81.265625 -2.921875 C 77.660156 -5.398438 75.078125 -9.273438 73.515625 -14.546875 L 71.46875 -14.734375 C 66.1875 -3.546875 56.359375 2.046875 41.984375 2.046875 Z M 50.5625 -18.15625 C 56.8125 -18.15625 61.804688 -20.253906 65.546875 -24.453125 C 69.296875 -28.648438 71.171875 -34.492188 71.171875 -41.984375 L 71.171875 -52.90625 L 69.3125 -53.296875 C 67.6875 -51.992188 65.554688 -50.90625 62.921875 -50.03125 C 60.285156 -49.15625 56.492188 -48.296875 51.546875 -47.453125 C 45.691406 -46.472656 41.476562 -44.796875 38.90625 -42.421875 C 36.332031 -40.046875 35.046875 -36.675781 35.046875 -32.3125 C 35.046875 -27.6875 36.410156 -24.171875 39.140625 -21.765625 C 41.878906 -19.359375 45.6875 -18.15625 50.5625 -18.15625 Z M 50.5625 -18.15625 "/></g></g></g><g fill="#ffffff" fill-opacity="1"><g transform="translate(984.031358, 498.903022)"><g><path d="M 15.515625 0 L 15.515625 -107.6875 L 41.484375 -107.6875 L 41.484375 -91.859375 L 43.546875 -91.375 C 50.242188 -103.613281 61.109375 -109.734375 76.140625 -109.734375 C 88.578125 -109.734375 97.707031 -106.347656 103.53125 -99.578125 C 109.351562 -92.804688 112.265625 -82.945312 112.265625 -70 L 112.265625 0 L 85.234375 0 L 85.234375 -66.671875 C 85.234375 -73.835938 83.800781 -79 80.9375 -82.15625 C 78.070312 -85.3125 73.484375 -86.890625 67.171875 -86.890625 C 59.421875 -86.890625 53.378906 -84.382812 49.046875 -79.375 C 44.722656 -74.363281 42.5625 -66.488281 42.5625 -55.75 L 42.5625 0 Z M 15.515625 0 "/></g></g></g><g fill="#ffffff" fill-opacity="1"><g transform="translate(1092.17316, 498.903022)"><g><path d="M 53.203125 2.046875 C 44.679688 2.046875 37.148438 -0.015625 30.609375 -4.140625 C 24.066406 -8.273438 18.941406 -14.523438 15.234375 -22.890625 C 11.523438 -31.253906 9.671875 -41.554688 9.671875 -53.796875 C 9.671875 -66.097656 11.570312 -76.425781 15.375 -84.78125 C 19.1875 -93.144531 24.457031 -99.394531 31.1875 -103.53125 C 37.925781 -107.664062 45.722656 -109.734375 54.578125 -109.734375 C 61.273438 -109.734375 67.082031 -108.578125 72 -106.265625 C 76.914062 -103.953125 81.066406 -100.359375 84.453125 -95.484375 L 86.5 -95.96875 L 86.5 -150.921875 L 113.53125 -150.921875 L 113.53125 0 L 86.5 0 L 86.5 -13.953125 L 84.453125 -14.34375 C 81.453125 -9.269531 77.347656 -5.269531 72.140625 -2.34375 C 66.929688 0.582031 60.617188 2.046875 53.203125 2.046875 Z M 62 -20.890625 C 69.613281 -20.890625 75.628906 -23.609375 80.046875 -29.046875 C 84.472656 -34.484375 86.6875 -42.734375 86.6875 -53.796875 C 86.6875 -64.859375 84.472656 -73.125 80.046875 -78.59375 C 75.628906 -84.0625 69.613281 -86.796875 62 -86.796875 C 54.050781 -86.796875 47.976562 -84.140625 43.78125 -78.828125 C 39.582031 -73.523438 37.484375 -65.179688 37.484375 -53.796875 C 37.484375 -42.472656 39.582031 -34.15625 43.78125 -28.84375 C 47.976562 -23.539062 54.050781 -20.890625 62 -20.890625 Z M 62 -20.890625 "/></g></g></g><g fill="#ffffff" fill-opacity="1"><g transform="translate(1203.243866, 498.903022)"><g/></g></g><g fill="#ffffff" fill-opacity="1"><g transform="translate(1232.40365, 498.903022)"><g><path d="M 74.296875 -25.671875 L 81.328125 -5.65625 C 78.390625 -3.25 74.707031 -1.363281 70.28125 0 C 65.863281 1.363281 60.851562 2.046875 55.25 2.046875 C 43.601562 2.046875 34.753906 -1.125 28.703125 -7.46875 C 22.648438 -13.8125 19.625 -23.035156 19.625 -35.140625 L 19.625 -86.296875 L 3.21875 -86.296875 L 3.21875 -107.78125 L 19.625 -107.78125 L 19.625 -128.765625 L 46.671875 -133.15625 L 46.671875 -107.78125 L 77.21875 -107.78125 L 77.21875 -86.296875 L 46.671875 -86.296875 L 46.671875 -37.09375 C 46.671875 -31.757812 47.773438 -27.867188 49.984375 -25.421875 C 52.191406 -22.984375 55.414062 -21.765625 59.65625 -21.765625 C 64.46875 -21.765625 68.664062 -23.066406 72.25 -25.671875 Z M 74.296875 -25.671875 "/></g></g></g><g fill="#ffffff" fill-opacity="1"><g transform="translate(1298.07672, 498.903022)"><g><path d="M 15.515625 0 L 15.515625 -107.6875 L 41.78125 -107.6875 L 41.78125 -91.671875 L 43.828125 -91.28125 C 46.429688 -97.269531 49.847656 -101.660156 54.078125 -104.453125 C 58.316406 -107.253906 63.460938 -108.65625 69.515625 -108.65625 C 75.628906 -108.65625 80.28125 -107.613281 83.46875 -105.53125 L 78.875 -82.203125 L 76.828125 -81.8125 C 75.078125 -82.53125 73.382812 -83.050781 71.75 -83.375 C 70.125 -83.695312 68.140625 -83.859375 65.796875 -83.859375 C 58.242188 -83.859375 52.484375 -81.207031 48.515625 -75.90625 C 44.546875 -70.601562 42.5625 -62.09375 42.5625 -50.375 L 42.5625 0 Z M 15.515625 0 "/></g></g></g><g fill="#ffffff" fill-opacity="1"><g transform="translate(1364.530869, 498.903022)"><g><path d="M 41.984375 2.046875 C 35.078125 2.046875 29.085938 0.78125 24.015625 -1.75 C 18.941406 -4.289062 15.035156 -8.019531 12.296875 -12.9375 C 9.566406 -17.851562 8.203125 -23.757812 8.203125 -30.65625 C 8.203125 -37.03125 9.566406 -42.378906 12.296875 -46.703125 C 15.035156 -51.035156 19.265625 -54.582031 24.984375 -57.34375 C 30.710938 -60.113281 38.203125 -62.25 47.453125 -63.75 C 53.890625 -64.789062 58.785156 -65.925781 62.140625 -67.15625 C 65.492188 -68.394531 67.753906 -69.796875 68.921875 -71.359375 C 70.097656 -72.921875 70.6875 -74.90625 70.6875 -77.3125 C 70.6875 -80.769531 69.476562 -83.40625 67.0625 -85.21875 C 64.65625 -87.039062 60.65625 -87.953125 55.0625 -87.953125 C 49.070312 -87.953125 43.375 -86.617188 37.96875 -83.953125 C 32.570312 -81.285156 27.890625 -77.773438 23.921875 -73.421875 L 21.96875 -73.421875 L 10.640625 -90.5 C 16.109375 -96.550781 22.78125 -101.269531 30.65625 -104.65625 C 38.53125 -108.039062 47.117188 -109.734375 56.421875 -109.734375 C 70.679688 -109.734375 81 -106.707031 87.375 -100.65625 C 93.75 -94.601562 96.9375 -86.007812 96.9375 -74.875 L 96.9375 -28.109375 C 96.9375 -23.296875 99.050781 -20.890625 103.28125 -20.890625 C 104.914062 -20.890625 106.515625 -21.179688 108.078125 -21.765625 L 109.4375 -21.375 L 111.390625 -2.53125 C 109.890625 -1.5625 107.804688 -0.765625 105.140625 -0.140625 C 102.472656 0.472656 99.546875 0.78125 96.359375 0.78125 C 89.910156 0.78125 84.878906 -0.453125 81.265625 -2.921875 C 77.660156 -5.398438 75.078125 -9.273438 73.515625 -14.546875 L 71.46875 -14.734375 C 66.1875 -3.546875 56.359375 2.046875 41.984375 2.046875 Z M 50.5625 -18.15625 C 56.8125 -18.15625 61.804688 -20.253906 65.546875 -24.453125 C 69.296875 -28.648438 71.171875 -34.492188 71.171875 -41.984375 L 71.171875 -52.90625 L 69.3125 -53.296875 C 67.6875 -51.992188 65.554688 -50.90625 62.921875 -50.03125 C 60.285156 -49.15625 56.492188 -48.296875 51.546875 -47.453125 C 45.691406 -46.472656 41.476562 -44.796875 38.90625 -42.421875 C 36.332031 -40.046875 35.046875 -36.675781 35.046875 -32.3125 C 35.046875 -27.6875 36.410156 -24.171875 39.140625 -21.765625 C 41.878906 -19.359375 45.6875 -18.15625 50.5625 -18.15625 Z M 50.5625 -18.15625 "/></g></g></g><g fill="#ffffff" fill-opacity="1"><g transform="translate(1460.078521, 498.903022)"><g><path d="M 74.09375 0 L 41.875 0 L 2.046875 -107.6875 L 30.359375 -107.6875 L 57.109375 -30.953125 L 59.359375 -30.953125 L 86.203125 -107.6875 L 113.828125 -107.6875 Z M 74.09375 0 "/></g></g></g><g fill="#ffffff" fill-opacity="1"><g transform="translate(1557.871635, 498.903022)"><g><path d="M 106.40625 -47.734375 L 37.203125 -47.734375 C 37.972656 -38.367188 40.632812 -31.550781 45.1875 -27.28125 C 49.75 -23.019531 55.96875 -20.890625 63.84375 -20.890625 C 70.03125 -20.890625 75.039062 -22.046875 78.875 -24.359375 C 82.71875 -26.671875 85.8125 -30.171875 88.15625 -34.859375 L 90.203125 -34.859375 L 108.171875 -23.328125 C 104.648438 -15.785156 99.34375 -9.671875 92.25 -4.984375 C 85.15625 -0.296875 75.6875 2.046875 63.84375 2.046875 C 52.71875 2.046875 43.101562 -0.0664062 35 -4.296875 C 26.894531 -8.523438 20.644531 -14.820312 16.25 -23.1875 C 11.863281 -31.550781 9.671875 -41.753906 9.671875 -53.796875 C 9.671875 -66.023438 11.976562 -76.335938 16.59375 -84.734375 C 21.21875 -93.128906 27.46875 -99.394531 35.34375 -103.53125 C 43.21875 -107.664062 52.066406 -109.734375 61.890625 -109.734375 C 77.117188 -109.734375 88.785156 -105.695312 96.890625 -97.625 C 104.992188 -89.550781 109.046875 -77.707031 109.046875 -62.09375 C 109.046875 -56.425781 108.851562 -52.03125 108.46875 -48.90625 Z M 83.171875 -65.21875 C 82.910156 -73.414062 81.003906 -79.382812 77.453125 -83.125 C 73.910156 -86.863281 68.722656 -88.734375 61.890625 -88.734375 C 48.222656 -88.734375 40.1875 -80.894531 37.78125 -65.21875 Z M 83.171875 -65.21875 "/></g></g></g><g fill="#ffffff" fill-opacity="1"><g transform="translate(1656.933956, 498.903022)"><g><path d="M 44.71875 2.046875 C 35.019531 2.046875 27.613281 -0.570312 22.5 -5.8125 C 17.394531 -11.050781 14.84375 -19.003906 14.84375 -29.671875 L 14.84375 -150.921875 L 41.875 -150.921875 L 41.875 -30.75 C 41.875 -24.175781 44.609375 -20.890625 50.078125 -20.890625 C 51.640625 -20.890625 53.300781 -21.148438 55.0625 -21.671875 L 56.421875 -21.28125 L 58.875 -0.484375 C 57.375 0.296875 55.382812 0.910156 52.90625 1.359375 C 50.4375 1.816406 47.707031 2.046875 44.71875 2.046875 Z M 44.71875 2.046875 "/></g></g></g><g fill="#ffffff" fill-opacity="1"><g transform="translate(1700.835716, 498.903022)"><g><path d="M 50.375 2.046875 C 43.019531 2.046875 36.28125 1.1875 30.15625 -0.53125 C 24.039062 -2.257812 18.816406 -4.632812 14.484375 -7.65625 C 10.160156 -10.6875 6.957031 -14.15625 4.875 -18.0625 L 19.921875 -34.265625 L 21.96875 -34.265625 C 25.539062 -29.453125 29.769531 -25.835938 34.65625 -23.421875 C 39.539062 -21.015625 44.84375 -19.8125 50.5625 -19.8125 C 55.84375 -19.8125 59.816406 -20.753906 62.484375 -22.640625 C 65.148438 -24.535156 66.484375 -27.238281 66.484375 -30.75 C 66.484375 -33.488281 65.519531 -35.785156 63.59375 -37.640625 C 61.675781 -39.492188 58.570312 -40.941406 54.28125 -41.984375 L 40.03125 -45.390625 C 29.351562 -47.929688 21.554688 -51.820312 16.640625 -57.0625 C 11.734375 -62.300781 9.28125 -68.957031 9.28125 -77.03125 C 9.28125 -83.726562 10.988281 -89.550781 14.40625 -94.5 C 17.820312 -99.445312 22.632812 -103.222656 28.84375 -105.828125 C 35.0625 -108.429688 42.300781 -109.734375 50.5625 -109.734375 C 60.257812 -109.734375 68.296875 -108.332031 74.671875 -105.53125 C 81.054688 -102.726562 86.039062 -98.988281 89.625 -94.3125 L 75.171875 -78.6875 L 73.21875 -78.6875 C 70.226562 -82.070312 66.859375 -84.546875 63.109375 -86.109375 C 59.367188 -87.671875 55.1875 -88.453125 50.5625 -88.453125 C 39.894531 -88.453125 34.5625 -85.128906 34.5625 -78.484375 C 34.5625 -75.691406 35.550781 -73.414062 37.53125 -71.65625 C 39.519531 -69.894531 43.019531 -68.460938 48.03125 -67.359375 L 61.3125 -64.4375 C 72.238281 -62.09375 80.222656 -58.332031 85.265625 -53.15625 C 90.316406 -47.976562 92.84375 -41.03125 92.84375 -32.3125 C 92.84375 -25.476562 91.148438 -19.457031 87.765625 -14.25 C 84.378906 -9.039062 79.492188 -5.019531 73.109375 -2.1875 C 66.734375 0.632812 59.15625 2.046875 50.375 2.046875 Z M 50.375 2.046875 "/></g></g></g><g clip-path="url(#29353a9210)"><path fill="#19d5a8" d="M 102.726562 387.40625 C 102.496094 384.300781 102.375 381.164062 102.375 378 C 102.375 365.199219 104.277344 352.859375 107.8125 341.210938 C 112.65625 354.839844 129.667969 364.753906 141.5 371.667969 C 144.957031 373.695312 148.523438 375.585938 151.84375 377.800781 C 158.191406 376.140625 164.460938 374.3125 170.652344 372.34375 C 169.4375 369.007812 168.871094 364.660156 169.5625 362.371094 C 171.296875 356.667969 176.617188 358.160156 181.59375 357.730469 C 197.914062 356.316406 192.890625 330.050781 200.160156 320.292969 C 205.476562 313.148438 216.203125 308.8125 216.25 299.914062 C 216.28125 292.539062 208.382812 286.992188 208.242188 279.613281 C 208.226562 278.878906 208.289062 278.140625 208.410156 277.402344 C 208.84375 274.574219 209.964844 271.792969 209.765625 268.949219 C 209.347656 263.234375 204.03125 259.207031 199.652344 255.011719 C 208.996094 252.8125 218.738281 251.628906 228.757812 251.628906 C 241.761719 251.628906 254.316406 253.597656 266.117188 257.253906 C 262.796875 266.382812 270.082031 281.996094 278.183594 287.128906 C 284.265625 290.988281 292.8125 292.492188 295.53125 299.164062 C 296.007812 300.347656 296.222656 301.53125 296.269531 302.699219 C 307.367188 293.078125 317.816406 282.734375 327.542969 271.683594 C 328.957031 270.085938 329.957031 268.949219 330.847656 268.148438 C 304.078125 243.253906 268.207031 228.023438 228.757812 228.023438 C 145.925781 228.023438 78.769531 295.183594 78.769531 378.015625 C 78.769531 382.011719 78.921875 385.960938 79.230469 389.863281 C 87.144531 389.25 94.964844 388.433594 102.726562 387.40625 Z M 102.726562 387.40625 " fill-opacity="1" fill-rule="nonzero"/></g><g clip-path="url(#70766ab55b)"><path fill="#19d5a8" d="M 359.648438 368.085938 C 358.570312 368.703125 357.789062 369.164062 357.433594 369.378906 C 332.816406 384.421875 306.429688 396.871094 278.84375 406.523438 C 278.703125 407.765625 278.6875 408.996094 278.917969 410.226562 C 280.164062 417.203125 287.003906 423.152344 294.070312 423.367188 C 297.332031 423.472656 301.019531 422.703125 303.539062 424.78125 C 305.058594 426.039062 305.722656 428.039062 306.242188 429.941406 C 309.671875 442.40625 310.609375 455.546875 308.980469 468.363281 C 308.65625 470.945312 308.242188 473.574219 308.394531 476.15625 C 286.664062 493.8125 258.957031 504.402344 228.773438 504.402344 C 222.734375 504.402344 216.789062 503.96875 210.976562 503.140625 C 211.039062 502.078125 211.132812 501.035156 211.285156 499.988281 C 212.101562 494.71875 214.867188 489.785156 218.9375 486.34375 C 221.644531 484.070312 225.207031 481.855469 225.300781 478.320312 C 225.394531 474.523438 221.460938 472.144531 218.816406 469.421875 C 213.652344 464.121094 213.039062 455.683594 217.507812 450.058594 C 223.332031 442.746094 228.867188 435.089844 234.351562 427.4375 C 236.210938 424.839844 238.179688 421.890625 237.734375 418.726562 C 237.734375 418.695312 237.71875 418.679688 237.71875 418.648438 C 214.097656 424.332031 189.863281 428.066406 165.335938 429.726562 C 159.480469 430.128906 153.671875 430.390625 147.894531 430.558594 C 147.339844 435.890625 147.769531 441.347656 149.308594 446.171875 C 152.609375 456.546875 161.585938 464.519531 171.804688 468.269531 C 174.496094 469.253906 177.351562 470.007812 179.613281 471.757812 C 181.886719 473.511719 183.421875 476.628906 182.332031 479.273438 C 181.6875 480.855469 180.179688 482.148438 180.164062 483.855469 C 180.148438 485.035156 180.871094 486.082031 181.546875 487.035156 C 182.808594 488.785156 185.191406 492.980469 188.019531 497.683594 C 154.886719 486.40625 127.945312 461.722656 113.621094 430.128906 C 109.671875 429.914062 105.738281 429.652344 101.851562 429.3125 L 101.28125 429.265625 C 97.316406 428.929688 92.445312 428.5 87.234375 427.761719 C 107.753906 486.144531 163.367188 528.003906 228.773438 528.003906 C 311.605469 528.003906 378.765625 460.847656 378.765625 378.015625 C 378.765625 370.945312 378.257812 363.984375 377.320312 357.175781 C 373.894531 359.757812 368.34375 363.0625 359.648438 368.085938 Z M 359.648438 368.085938 " fill-opacity="1" fill-rule="nonzero"/></g><g clip-path="url(#ff2cbc3a0c)"><path fill="#19d5a8" d="M 281.515625 321.691406 C 279.917969 321.046875 219.984375 379.628906 100.589844 393.738281 C 93.550781 394.566406 72.113281 396.917969 66.304688 395.855469 C 59.710938 394.660156 54.210938 390.648438 60.726562 378.96875 C 56.300781 384.285156 50.953125 388.605469 50.890625 396.304688 C 50.675781 419.230469 85.929688 422.011719 102.359375 423.425781 C 123.152344 425.226562 152.535156 423.257812 173.097656 419.707031 C 223.210938 411.039062 249.089844 395.257812 309.242188 365.089844 C 309.242188 365.089844 309.253906 347.496094 309.242188 334.203125 C 309.210938 334.171875 297.867188 328.347656 281.515625 321.691406 Z M 281.515625 321.691406 " fill-opacity="1" fill-rule="nonzero"/></g><path fill="#19d5a8" d="M 441.988281 252.492188 C 437.792969 245.804688 420.367188 249.125 413.679688 253.320312 L 406.441406 257.871094 L 334.675781 240.582031 C 332.613281 239.980469 330.234375 240.363281 328.234375 241.609375 C 324.039062 244.238281 323.117188 249.570312 326.375 252.367188 L 363.964844 282.042969 L 325.023438 315.945312 L 306.644531 308.214844 C 304.476562 307.308594 302.015625 307.507812 300.035156 308.753906 L 293.566406 312.808594 C 292.042969 313.761719 292.121094 315.992188 293.703125 316.835938 L 317.675781 329.960938 L 318.800781 356.855469 C 318.875 358.636719 320.859375 359.679688 322.363281 358.726562 L 328.835938 354.671875 C 330.816406 353.425781 332.078125 351.289062 332.199219 348.953125 L 333.152344 330.621094 L 378.8125 309.089844 L 390.628906 363.554688 C 391.71875 367.703125 396.914062 369.195312 401.109375 366.566406 C 403.105469 365.320312 404.492188 363.339844 404.84375 361.21875 L 421.6875 282.179688 L 428.925781 277.632812 C 435.609375 273.4375 446.183594 259.175781 441.988281 252.492188 Z M 427.957031 272.300781 C 429.371094 260.527344 417.707031 255.871094 417.707031 255.871094 C 417.707031 255.871094 429.617188 250.292969 433.917969 257.175781 C 438.453125 264.429688 427.957031 272.300781 427.957031 272.300781 Z M 427.957031 272.300781 " fill-opacity="1" fill-rule="nonzero"/></svg>