<svg xmlns="http://www.w3.org/2000/svg" xmlns:xlink="http://www.w3.org/1999/xlink" width="2000" zoomAndPan="magnify" viewBox="0 0 1500 1124.99995" height="1500" preserveAspectRatio="xMidYMid meet" version="1.0"><defs><g/><clipPath id="90db2185f3"><path d="M 732 113 L 1295.449219 113 L 1295.449219 927 L 732 927 Z M 732 113 " clip-rule="nonzero"/></clipPath><clipPath id="f8c6ed62a4"><path d="M 32.464844 459.042969 L 307.59375 459.042969 L 307.59375 720.859375 L 32.464844 720.859375 Z M 32.464844 459.042969 " clip-rule="nonzero"/></clipPath></defs><g fill="#a72907" fill-opacity="1"><g transform="translate(13.305574, 706.022276)"><g><path d="M 49.46875 -281.9375 L 49.46875 -386.90625 L 146.734375 -386.90625 L 146.734375 -281.9375 L 206.09375 -281.9375 L 206.09375 -207.75 L 146.734375 -207.75 L 146.734375 -118.15625 C 146.734375 -92.144531 154.0625 -79.140625 168.71875 -79.140625 C 172.382812 -79.140625 176.234375 -79.867188 180.265625 -81.328125 C 184.296875 -82.796875 187.410156 -84.265625 189.609375 -85.734375 L 192.90625 -87.9375 L 217.09375 -9.34375 C 196.207031 2.382812 172.390625 8.25 145.640625 8.25 C 127.316406 8.25 111.5625 5.046875 98.375 -1.359375 C 85.1875 -7.773438 75.203125 -16.390625 68.421875 -27.203125 C 61.640625 -38.015625 56.785156 -49.375 53.859375 -61.28125 C 50.929688 -73.1875 49.46875 -85.914062 49.46875 -99.46875 L 49.46875 -207.75 L 8.796875 -207.75 L 8.796875 -281.9375 Z M 49.46875 -281.9375 "/></g></g></g><g fill="#a72907" fill-opacity="1"><g transform="translate(183.661892, 706.022276)"><g><path d="M 32.96875 0 L 32.96875 -281.9375 L 130.25 -281.9375 L 130.25 -241.265625 L 131.359375 -241.265625 C 132.085938 -242.734375 133.273438 -244.566406 134.921875 -246.765625 C 136.566406 -248.960938 140.140625 -252.804688 145.640625 -258.296875 C 151.140625 -263.796875 157.003906 -268.742188 163.234375 -273.140625 C 169.460938 -277.546875 177.519531 -281.488281 187.40625 -284.96875 C 197.300781 -288.445312 207.378906 -290.1875 217.640625 -290.1875 C 228.265625 -290.1875 238.707031 -288.71875 248.96875 -285.78125 C 259.226562 -282.851562 266.738281 -279.925781 271.5 -277 L 279.1875 -272.59375 L 238.53125 -190.15625 C 226.4375 -200.414062 209.582031 -205.546875 187.96875 -205.546875 C 176.238281 -205.546875 166.160156 -202.976562 157.734375 -197.84375 C 149.304688 -192.71875 143.351562 -186.488281 139.875 -179.15625 C 136.394531 -171.832031 133.921875 -165.601562 132.453125 -160.46875 C 130.984375 -155.34375 130.25 -151.316406 130.25 -148.390625 L 130.25 0 Z M 32.96875 0 "/></g></g></g><g fill="#a72907" fill-opacity="1"><g transform="translate(410.621951, 706.022276)"><g><path d="M 52.203125 -34.890625 C 25.828125 -63.660156 12.640625 -98.925781 12.640625 -140.6875 C 12.640625 -182.457031 25.828125 -217.816406 52.203125 -246.765625 C 78.585938 -275.710938 112.113281 -290.1875 152.78125 -290.1875 C 190.15625 -290.1875 220.9375 -278.460938 245.125 -255.015625 L 245.125 -281.9375 L 342.390625 -281.9375 L 342.390625 0 L 246.21875 0 L 246.21875 -31.875 L 245.125 -31.875 C 220.9375 -5.125 190.15625 8.25 152.78125 8.25 C 112.113281 8.25 78.585938 -6.128906 52.203125 -34.890625 Z M 134.921875 -188.515625 C 122.285156 -176.054688 115.96875 -160.113281 115.96875 -140.6875 C 115.96875 -121.269531 122.007812 -105.425781 134.09375 -93.15625 C 146.1875 -80.882812 162.128906 -74.75 181.921875 -74.75 C 200.972656 -74.75 216.632812 -80.972656 228.90625 -93.421875 C 241.175781 -105.878906 247.3125 -121.640625 247.3125 -140.703125 C 247.3125 -160.117188 240.988281 -176.054688 228.34375 -188.515625 C 215.707031 -200.972656 200.234375 -207.203125 181.921875 -207.203125 C 163.234375 -207.203125 147.566406 -200.972656 134.921875 -188.515625 Z M 134.921875 -188.515625 "/></g></g></g><g fill="#a72907" fill-opacity="1"><g transform="translate(739.24901, 706.022276)"><g><path d="M 104.421875 -281.9375 L 173.125 -128.609375 L 241.828125 -281.9375 L 357.234375 -281.9375 L 206.09375 0 L 140.140625 0 L -10.984375 -281.9375 Z M 104.421875 -281.9375 "/></g></g></g><g fill="#a72907" fill-opacity="1"><g transform="translate(1038.749832, 706.022276)"><g><path d="M 318.21875 -127.5 L 113.765625 -127.5 C 113.765625 -107.71875 120.175781 -93.0625 133 -83.53125 C 145.820312 -74.007812 159.742188 -69.25 174.765625 -69.25 C 190.523438 -69.25 202.984375 -71.351562 212.140625 -75.5625 C 221.304688 -79.78125 231.75 -88.117188 243.46875 -100.578125 L 313.8125 -65.40625 C 284.5 -16.300781 235.769531 8.25 167.625 8.25 C 125.125 8.25 88.664062 -6.3125 58.25 -35.4375 C 27.84375 -64.570312 12.640625 -99.65625 12.640625 -140.6875 C 12.640625 -181.726562 27.84375 -216.90625 58.25 -246.21875 C 88.664062 -275.53125 125.125 -290.1875 167.625 -290.1875 C 212.320312 -290.1875 248.6875 -277.269531 276.71875 -251.4375 C 304.75 -225.601562 318.765625 -188.691406 318.765625 -140.703125 C 318.765625 -134.097656 318.582031 -129.695312 318.21875 -127.5 Z M 116.515625 -181.359375 L 223.6875 -181.359375 C 221.488281 -196.015625 215.71875 -207.28125 206.375 -215.15625 C 197.03125 -223.039062 185.03125 -226.984375 170.375 -226.984375 C 154.25 -226.984375 141.421875 -222.769531 131.890625 -214.34375 C 122.367188 -205.914062 117.242188 -194.921875 116.515625 -181.359375 Z M 116.515625 -181.359375 "/></g></g></g><g fill="#a72907" fill-opacity="1"><g transform="translate(1323.412727, 706.022276)"><g><path d="M 32.96875 0 L 32.96875 -472.65625 L 130.25 -472.65625 L 130.25 0 Z M 32.96875 0 "/></g></g></g><g clip-path="url(#90db2185f3)"><path fill="#ffaa1c" d="M 1253.460938 321.800781 C 1273.320312 330.992188 1288.253906 344.945312 1295.3125 362.667969 C 1289.402344 330.335938 1258.054688 306.703125 1218.171875 297.019531 C 1194.375 290.949219 1167.625 289.140625 1140.050781 290.621094 C 1130.53125 291.113281 1120.847656 292.097656 1111 293.410156 C 1127.085938 286.351562 1147.273438 285.039062 1167.625 289.140625 C 1153.835938 282.90625 1138.738281 278.800781 1124.296875 277.816406 C 1124.625 277.652344 1124.789062 277.652344 1125.117188 277.488281 C 1126.429688 276.832031 1127.742188 276.175781 1129.054688 275.683594 C 1129.710938 275.355469 1130.53125 275.027344 1131.1875 274.863281 C 1132.007812 274.699219 1132.667969 274.535156 1133.488281 274.371094 C 1146.453125 271.910156 1176.652344 278.144531 1176.816406 277.488281 C 1176.980469 277.160156 1176.816406 276.667969 1176.488281 276.339844 C 1169.265625 269.121094 1159.089844 263.539062 1148.914062 260.257812 C 1163.027344 259.4375 1177.800781 262.226562 1192.734375 266.65625 C 1183.214844 261.898438 1173.039062 257.628906 1162.535156 254.675781 C 1177.964844 254.511719 1191.585938 254.839844 1208.328125 257.792969 C 1198.972656 247.785156 1184.691406 242.039062 1171.5625 239.414062 C 1177.472656 236.621094 1185.839844 237.28125 1196.015625 240.5625 C 1198.972656 241.546875 1202.417969 242.53125 1205.535156 243.515625 C 1207.667969 244.335938 1216.859375 246.304688 1215.875 245.648438 C 1213.90625 244.335938 1208.984375 240.890625 1207.175781 239.742188 C 1204.222656 237.9375 1200.941406 235.964844 1197.988281 234.324219 L 1196.179688 233.339844 C 1210.625 231.371094 1226.378906 232.027344 1242.792969 235.636719 C 1234.257812 230.550781 1224.902344 226.285156 1215.21875 222.507812 C 1230.484375 220.210938 1247.222656 222.34375 1263.636719 228.253906 C 1256.414062 223.492188 1248.699219 219.0625 1240.332031 215.617188 C 1240.496094 215.617188 1240.660156 215.617188 1240.824219 215.617188 C 1243.613281 215.453125 1246.566406 215.453125 1249.355469 215.289062 C 1252.3125 215.289062 1255.265625 215.289062 1258.21875 215.289062 C 1261.171875 215.289062 1264.292969 215.453125 1267.410156 215.453125 C 1264.621094 213.808594 1261.664062 212.167969 1258.546875 210.691406 C 1255.59375 209.378906 1252.476562 207.902344 1249.355469 206.753906 C 1246.238281 205.605469 1243.121094 204.457031 1239.835938 203.46875 C 1176.980469 184.433594 1118.878906 207.902344 1088.515625 247.621094 C 1071.777344 177.867188 1031.894531 128.957031 984.628906 113.367188 C 997.101562 122.230469 1008.589844 132.898438 1018.601562 146.191406 C 1016.796875 144.714844 1014.664062 143.402344 1012.691406 142.089844 C 1009.574219 140.121094 1006.292969 138.640625 1003.007812 137.492188 C 997.59375 135.6875 992.175781 134.703125 986.597656 134.703125 C 986.269531 134.703125 985.941406 135.195312 985.941406 135.6875 C 985.941406 136.179688 995.789062 142.746094 1000.054688 146.519531 C 1002.1875 148.488281 1004.324219 150.457031 1006.292969 152.757812 L 1009.246094 156.039062 C 1010.230469 157.1875 1011.214844 158.335938 1012.035156 159.484375 C 1013.347656 161.125 1014.664062 163.097656 1015.8125 165.066406 C 1007.933594 162.769531 999.5625 162.441406 991.027344 166.378906 C 1003.832031 174.421875 1015.976562 181.148438 1028.449219 189.683594 C 1018.601562 189.027344 1008.261719 192.636719 998.578125 198.546875 C 1010.722656 197.070312 1022.539062 200.1875 1031.894531 209.050781 C 1025.167969 209.050781 1014.5 211.347656 1014.5 212.167969 C 1014.5 212.660156 1014.992188 213.316406 1014.992188 213.316406 C 1021.71875 216.601562 1027.628906 221.359375 1033.535156 226.613281 C 1037.640625 230.550781 1042.398438 234.324219 1046.171875 238.921875 C 1046.007812 238.921875 1046.007812 238.921875 1045.84375 238.921875 C 1031.894531 224.804688 1015.484375 215.78125 994.3125 207.574219 C 962.308594 194.445312 925.871094 192.472656 894.6875 206.753906 C 890.09375 208.722656 885.5 211.347656 881.230469 214.136719 C 879.097656 215.453125 876.964844 217.09375 874.996094 218.570312 C 874.335938 218.898438 874.171875 219.71875 874.335938 220.539062 C 874.667969 221.359375 900.269531 213.972656 912.25 213.316406 C 902.894531 218.242188 894.523438 225.953125 888.453125 234.816406 C 888.289062 235.144531 888.125 235.636719 888.453125 235.964844 C 888.78125 236.457031 902.238281 229.402344 908.640625 227.433594 C 916.023438 225.132812 923.410156 223.984375 930.960938 224.148438 C 922.917969 228.910156 915.203125 235.472656 910.609375 244.007812 C 910.445312 244.5 910.28125 244.992188 910.609375 245.484375 C 912.085938 245.8125 931.289062 237.609375 938.671875 237.9375 C 937.6875 239.085938 936.703125 240.234375 935.882812 241.382812 L 932.4375 245.976562 C 930.960938 248.277344 929.320312 250.902344 927.839844 253.363281 C 927.019531 255.003906 924.722656 259.273438 923.902344 260.914062 C 925.214844 259.601562 928.5 256.480469 929.8125 255.167969 C 931.78125 253.527344 934.078125 251.722656 936.046875 250.082031 L 940.480469 247.125 C 950.492188 241.382812 959.1875 239.742188 965.753906 239.90625 C 954.757812 245.976562 944.910156 254.839844 937.195312 264.851562 C 947.207031 257.792969 958.039062 252.871094 969.691406 250.574219 C 963.457031 255.003906 952.625 266.820312 952.789062 267.3125 C 953.28125 267.96875 973.960938 259.929688 982.496094 259.273438 C 974.78125 263.539062 967.722656 268.953125 961.488281 274.863281 C 971.992188 268.953125 983.152344 265.179688 994.476562 263.539062 C 989.058594 268.296875 984.628906 274.371094 982.003906 280.773438 C 981.671875 280.773438 981.507812 280.773438 981.179688 280.9375 C 957.875 286.515625 935.390625 296.035156 915.53125 309.164062 C 886.976562 328.695312 864 355.449219 845.617188 383.839844 C 845.289062 384.496094 845.289062 385.152344 845.78125 385.808594 C 846.4375 386.464844 855.300781 378.589844 859.074219 375.140625 C 857.433594 378.261719 855.957031 381.378906 854.972656 384.660156 C 854.808594 384.988281 855.300781 385.480469 855.628906 385.152344 C 864.328125 377.769531 871.875 370.710938 879.589844 362.667969 C 875.160156 372.679688 872.53125 383.839844 871.875 394.507812 C 878.113281 377.933594 888.78125 363.160156 903.386719 353.3125 C 898.957031 363.816406 896.496094 375.796875 897.152344 387.121094 C 897.480469 387.285156 906.835938 373.828125 910.28125 368.25 C 913.726562 362.175781 921.113281 349.539062 924.558594 343.628906 C 920.457031 355.121094 918.324219 367.921875 921.277344 379.902344 C 921.277344 379.902344 924.558594 364.800781 927.511719 357.910156 C 928.828125 354.460938 930.46875 351.179688 932.4375 348.0625 C 934.242188 344.78125 936.210938 341.824219 938.34375 338.871094 C 941.792969 333.949219 946.386719 330.007812 950.328125 325.414062 C 950.328125 325.414062 950.328125 325.414062 950.328125 325.578125 C 941.464844 339.199219 935.390625 355.121094 933.257812 370.875 C 936.703125 362.339844 941.136719 354.460938 946.386719 347.40625 C 946.222656 354.296875 947.207031 360.863281 948.519531 367.429688 C 948.683594 367.921875 948.847656 368.25 949.339844 368.414062 C 950 368.742188 956.5625 354.296875 959.84375 348.554688 C 962.964844 342.972656 966.410156 337.886719 970.183594 334.113281 C 966.246094 342.480469 965.261719 352.328125 966.246094 361.355469 C 967.886719 347.078125 975.765625 334.441406 988.074219 327.21875 C 984.300781 336.902344 982.988281 348.554688 985.941406 358.238281 C 980.195312 365.621094 975.273438 373.664062 971.007812 382.363281 C 969.691406 384.988281 968.542969 387.78125 967.230469 390.570312 C 966.082031 393.359375 964.933594 396.148438 963.949219 398.941406 C 955.742188 421.261719 951.3125 446.042969 950.164062 471.316406 C 950 473.121094 950 475.09375 950 476.898438 C 949.011719 477.71875 948.027344 478.703125 947.042969 479.523438 C 935.71875 490.683594 927.347656 505.785156 922.589844 521.867188 C 923.082031 507.425781 928.828125 493.308594 938.507812 482.3125 C 930.140625 487.730469 922.753906 494.949219 917.503906 503.484375 C 917.503906 503.320312 917.503906 502.992188 917.503906 502.828125 C 917.503906 501.679688 917.503906 500.53125 917.667969 499.382812 C 917.667969 498.726562 917.832031 498.234375 917.832031 497.578125 C 917.996094 497.085938 918.160156 496.429688 918.324219 495.9375 C 921.113281 486.582031 934.734375 470.824219 934.40625 470.496094 C 934.242188 470.167969 933.914062 470.167969 933.585938 470.167969 C 926.855469 470.824219 919.964844 474.4375 914.710938 479.03125 C 918.816406 469.675781 925.378906 461.960938 932.929688 455.070312 C 926.855469 458.515625 920.949219 462.617188 915.695312 467.542969 C 920.621094 457.695312 925.214844 449.488281 932.4375 440.625 C 923.246094 441.285156 915.039062 447.191406 909.132812 454.085938 C 909.460938 448.996094 912.414062 444.074219 917.667969 439.3125 C 919.308594 438 920.949219 436.359375 922.589844 434.882812 C 923.738281 434.0625 928.007812 429.300781 927.347656 429.464844 C 925.871094 429.957031 922.261719 431.273438 920.785156 431.765625 C 918.652344 432.75 916.515625 433.734375 914.546875 434.71875 L 913.398438 435.375 C 916.84375 425.363281 922.425781 415.84375 929.976562 407.308594 C 924.066406 410.101562 918.324219 413.546875 912.90625 417.648438 C 916.351562 406.980469 923.246094 397.625 932.109375 390.40625 C 926.855469 392.375 921.605469 395 916.84375 398.285156 C 916.84375 398.117188 917.007812 398.117188 917.007812 397.953125 C 917.832031 396.148438 918.816406 394.34375 919.636719 392.375 C 920.621094 390.570312 921.605469 388.765625 922.425781 386.792969 C 923.410156 384.988281 924.558594 383.183594 925.542969 381.214844 C 923.574219 382.199219 921.605469 383.183594 919.800781 384.167969 C 917.996094 385.316406 916.1875 386.464844 914.382812 387.78125 C 912.578125 389.09375 910.9375 390.570312 909.296875 391.882812 C 874.667969 423.558594 872.203125 477.554688 891.242188 518.75 C 873.679688 509.230469 855.628906 506.441406 832.652344 506.113281 C 801.46875 505.125 769.300781 514.644531 746.324219 535.980469 C 742.875 539.101562 739.59375 542.546875 736.640625 546.15625 C 735.164062 547.960938 733.847656 549.769531 732.371094 551.574219 C 731.878906 552.066406 732.042969 552.886719 732.371094 553.378906 C 732.863281 554.035156 753.050781 540.085938 763.226562 535.816406 C 756.5 542.710938 751.246094 551.574219 748.457031 560.765625 C 748.292969 561.09375 748.457031 561.421875 748.785156 561.75 C 749.113281 562.078125 758.796875 552.230469 763.882812 548.617188 C 769.628906 544.515625 775.699219 541.234375 782.429688 539.101562 C 776.683594 545.5 771.925781 553.214844 770.121094 561.421875 C 769.957031 561.75 770.121094 562.242188 770.449219 562.570312 C 771.925781 562.40625 786.203125 549.933594 792.605469 547.796875 C 792.113281 548.949219 791.621094 550.261719 791.128906 551.410156 L 789.488281 556.332031 C 788.832031 558.628906 788.175781 561.257812 787.515625 563.71875 C 787.1875 565.359375 786.53125 569.460938 786.203125 571.105469 C 787.023438 569.625 788.996094 566.015625 789.816406 564.703125 C 791.128906 562.734375 792.605469 560.601562 793.917969 558.628906 L 796.871094 554.855469 C 803.929688 547.140625 811.152344 543.039062 816.894531 541.234375 C 809.015625 549.605469 802.945312 559.78125 799.007812 570.449219 C 805.734375 561.585938 813.777344 554.199219 823.296875 548.949219 C 819.027344 554.363281 812.957031 567.328125 813.285156 567.820312 C 813.941406 568.3125 829.53125 555.347656 836.753906 552.066406 C 831.339844 557.972656 826.578125 564.375 822.804688 571.269531 C 830.351562 563.226562 838.886719 556.824219 848.242188 551.902344 C 848.242188 551.902344 848.242188 551.902344 848.242188 552.066406 C 844.796875 557.644531 842.664062 563.882812 842.171875 569.957031 C 851.195312 557.316406 867.609375 552.230469 882.214844 554.691406 C 880.410156 555.839844 878.769531 557.152344 877.128906 558.464844 C 861.207031 565.03125 847.257812 575.371094 838.066406 589.648438 C 828.546875 605.242188 821.65625 622.472656 818.535156 640.855469 C 814.269531 667.445312 817.550781 695.507812 824.445312 722.261719 C 824.609375 722.753906 825.101562 723.246094 825.757812 723.246094 C 826.414062 723.246094 826.742188 713.890625 826.742188 709.789062 C 827.5625 712.414062 828.710938 715.039062 830.1875 717.664062 C 830.351562 717.992188 830.84375 717.992188 830.84375 717.5 C 831.175781 708.472656 831.175781 700.269531 830.84375 691.570312 C 834.292969 699.941406 839.542969 707.980469 845.617188 714.710938 C 839.050781 701.417969 836.261719 686.972656 838.558594 673.515625 C 842.335938 682.214844 848.242188 690.75 855.300781 697.148438 C 855.628906 697.148438 852.675781 684.183594 851.195312 678.933594 C 849.554688 673.515625 845.945312 662.027344 844.46875 656.613281 C 849.0625 665.636719 855.628906 674.5 864.328125 680.082031 C 864.328125 680.082031 857.105469 669.25 854.644531 663.667969 C 853.332031 660.878906 852.34375 658.089844 851.359375 655.132812 C 850.375 652.34375 849.71875 649.390625 849.0625 646.4375 C 848.078125 641.675781 848.242188 636.917969 847.75 632.15625 C 850.867188 644.957031 857.105469 657.761719 865.3125 668.265625 C 862.027344 661.371094 859.894531 654.3125 858.582031 647.257812 C 862.683594 651.523438 867.117188 654.96875 871.710938 658.253906 C 872.039062 658.417969 872.367188 658.582031 872.859375 658.417969 C 873.515625 658.253906 868.429688 646.273438 866.953125 641.019531 C 865.3125 635.933594 864.164062 631.171875 864 626.90625 C 866.789062 633.960938 872.203125 640.527344 878.113281 645.289062 C 870.5625 635.769531 867.28125 624.117188 869.742188 613.285156 C 873.515625 621.160156 879.753906 628.875 887.140625 633.140625 C 881.722656 624.609375 880.902344 614.925781 883.035156 606.390625 C 886.484375 613.121094 891.078125 619.191406 896.167969 624.28125 C 896.988281 625.101562 898.300781 624.28125 897.808594 623.292969 C 895.015625 616.566406 892.71875 609.835938 892.0625 603.4375 C 894.6875 608.195312 897.808594 612.625 901.417969 616.566406 C 899.121094 607.703125 898.792969 599.332031 900.597656 591.457031 C 901.746094 596.214844 903.386719 600.808594 905.191406 605.078125 C 906.175781 588.992188 911.429688 574.714844 920.949219 563.0625 C 921.277344 562.734375 921.605469 562.40625 921.769531 562.078125 C 963.128906 684.675781 998.25 785.117188 997.921875 926.429688 C 997.921875 926.429688 1005.636719 926.757812 1027.957031 926.429688 C 1025.824219 785.941406 987.910156 689.929688 931.78125 555.183594 C 931.945312 555.183594 931.945312 555.183594 932.109375 555.347656 C 932.929688 555.675781 933.75 556.167969 934.570312 556.660156 L 937.03125 558.300781 C 938.507812 559.453125 940.480469 561.09375 941.792969 562.40625 C 942.449219 563.0625 943.433594 564.046875 944.089844 564.703125 C 947.207031 567.820312 949.835938 571.433594 952.789062 575.207031 C 953.117188 575.699219 953.773438 575.371094 953.445312 574.878906 C 951.3125 569.460938 948.519531 563.71875 945.074219 558.792969 C 944.746094 558.464844 944.582031 557.972656 944.253906 557.644531 C 952.132812 561.257812 959.1875 567.164062 965.097656 574.714844 C 962.800781 566.015625 958.859375 557.480469 953.609375 549.933594 C 956.5625 551.738281 959.351562 554.035156 962.144531 556.660156 C 962.964844 557.644531 963.949219 558.464844 964.769531 559.453125 C 965.589844 560.4375 966.410156 561.421875 967.230469 562.570312 C 968.050781 563.554688 968.871094 564.703125 969.691406 565.6875 C 969.691406 565.6875 972.15625 568.96875 972.15625 568.96875 C 972.648438 569.625 973.46875 569.132812 973.140625 568.476562 C 972.320312 565.851562 971.5 563.0625 970.347656 560.4375 C 969.855469 559.121094 969.199219 557.808594 968.542969 556.496094 C 967.886719 555.183594 967.066406 553.871094 966.410156 552.558594 C 966.082031 552.066406 965.753906 551.410156 965.425781 550.917969 C 971.664062 552.394531 977.40625 555.347656 982.496094 560.765625 C 985.777344 564.210938 988.730469 568.476562 991.027344 572.910156 C 990.207031 570.449219 989.550781 567.984375 988.402344 565.523438 C 985.121094 557.808594 979.867188 550.917969 973.304688 545.992188 C 984.957031 552.886719 994.96875 563.554688 1002.84375 575.863281 C 1001.367188 569.132812 999.234375 562.242188 996.28125 555.675781 C 1001.695312 561.09375 1006.457031 567.328125 1011.050781 573.566406 C 1011.707031 574.386719 1011.542969 565.6875 1010.558594 562.242188 C 1014.335938 566.507812 1022.375 578.816406 1022.375 577.667969 C 1022.539062 574.386719 1022.210938 570.777344 1021.554688 567.328125 C 1029.761719 573.238281 1037.3125 580.128906 1043.21875 589.484375 C 1041.742188 581.445312 1038.460938 572.910156 1034.355469 565.359375 C 1046.171875 572.089844 1056.019531 583.25 1063.242188 596.214844 C 1061.273438 589.320312 1058.648438 582.429688 1055.035156 575.863281 C 1061.929688 580.621094 1076.207031 590.46875 1078.175781 591.125 C 1071.285156 700.761719 1055.035156 817.289062 1037.96875 926.429688 L 1077.191406 926.429688 C 1089.832031 815.152344 1101.8125 701.089844 1103.78125 588.335938 C 1104.765625 532.042969 1103.125 475.585938 1098.855469 419.621094 C 1096.886719 393.523438 1094.261719 367.59375 1091.144531 341.660156 C 1098.691406 352.65625 1101.976562 367.101562 1100.167969 380.066406 C 1104.765625 369.726562 1106.898438 357.746094 1105.257812 346.257812 C 1117.074219 356.761719 1124.460938 373.828125 1120.191406 390.078125 C 1124.789062 385.480469 1128.398438 379.410156 1130.695312 372.515625 C 1133.160156 383.675781 1133.816406 395.328125 1132.5 406.980469 C 1135.457031 399.105469 1137.589844 390.734375 1138.574219 382.199219 C 1141.035156 390.40625 1140.871094 412.070312 1141.363281 412.398438 C 1142.019531 412.726562 1142.839844 412.398438 1143.171875 411.742188 C 1146.289062 405.339844 1148.914062 398.449219 1150.390625 391.226562 C 1152.523438 402.878906 1152.03125 414.53125 1149.40625 426.347656 C 1155.316406 415.84375 1159.417969 403.699219 1160.894531 391.554688 C 1161.878906 393.195312 1163.027344 394.671875 1164.011719 396.148438 C 1165 403.042969 1164.667969 410.101562 1163.519531 417.484375 L 1162.535156 422.574219 C 1161.878906 425.035156 1161.058594 427.660156 1160.402344 430.125 C 1159.746094 431.765625 1158.269531 435.867188 1157.613281 437.507812 C 1158.761719 436.195312 1161.714844 432.585938 1162.699219 431.273438 C 1164.175781 429.136719 1165.984375 426.839844 1167.460938 424.542969 L 1170.25 419.785156 C 1170.90625 418.632812 1171.5625 417.320312 1172.21875 416.171875 C 1175.007812 422.902344 1174.515625 442.925781 1174.84375 444.566406 C 1175.335938 445.058594 1176.160156 444.894531 1176.652344 444.402344 C 1182.230469 437.179688 1185.019531 427.988281 1186.5 418.796875 C 1191.914062 432.257812 1192.898438 446.699219 1190.4375 461.140625 C 1190.4375 461.46875 1190.601562 461.960938 1190.929688 462.125 C 1191.421875 462.457031 1199.136719 448.832031 1200.941406 441.449219 C 1201.597656 438.492188 1202.089844 435.539062 1202.417969 432.421875 C 1206.027344 443.910156 1208.164062 470.003906 1208.984375 470.167969 C 1209.804688 470.332031 1210.625 469.839844 1210.789062 469.019531 C 1215.710938 449.652344 1214.890625 428.480469 1209.148438 408.625 C 1201.925781 383.675781 1187.15625 362.011719 1169.265625 343.464844 C 1171.5625 338.707031 1172.875 333.621094 1172.710938 328.53125 C 1172.710938 328.53125 1172.710938 328.367188 1172.710938 328.367188 C 1179.605469 335.425781 1184.855469 343.628906 1187.648438 352.984375 C 1188.140625 342.972656 1186.335938 333.292969 1182.394531 324.101562 C 1191.914062 331.15625 1197.003906 341.003906 1199.957031 351.671875 C 1200.449219 343.464844 1199.792969 335.261719 1196.671875 327.710938 C 1206.519531 335.917969 1212.101562 346.914062 1213.90625 359.058594 C 1217.023438 346.585938 1216.53125 333.785156 1211.773438 322.953125 C 1219.652344 328.859375 1224.246094 336.738281 1226.214844 345.765625 L 1227.035156 350.03125 C 1227.199219 352.164062 1227.363281 354.460938 1227.527344 356.597656 C 1227.527344 358.074219 1227.199219 362.011719 1227.199219 363.488281 C 1228.019531 362.011719 1229.828125 357.910156 1230.648438 356.433594 C 1231.46875 354.132812 1232.617188 351.507812 1233.4375 349.210938 L 1234.75 344.289062 C 1235.40625 341.496094 1235.898438 338.707031 1236.0625 335.917969 C 1243.285156 342.316406 1248.699219 350.03125 1249.519531 359.550781 C 1252.148438 350.6875 1250.671875 341.824219 1247.386719 334.113281 C 1262.980469 342.152344 1273.15625 354.789062 1274.304688 370.546875 C 1277.914062 351.015625 1268.722656 334.769531 1253.460938 321.800781 Z M 1068.988281 331.8125 Z M 982.167969 280.9375 C 995.789062 270.597656 1014.5 271.417969 1028.777344 279.621094 C 1027.957031 279.789062 1027.136719 280.117188 1026.152344 280.28125 C 1011.707031 277.816406 996.773438 277.652344 982.167969 280.9375 Z M 1007.113281 331.8125 C 1006.292969 334.113281 1005.636719 336.410156 1004.980469 338.871094 C 1003.007812 340.511719 1001.039062 342.152344 999.070312 343.957031 C 994.476562 348.226562 990.207031 352.984375 986.105469 358.074219 C 989.058594 346.257812 997.265625 337.394531 1007.113281 331.8125 Z M 989.058594 418.140625 C 990.207031 427.824219 992.339844 437.835938 995.789062 446.535156 C 991.027344 448.503906 986.433594 450.800781 981.839844 453.429688 C 982.332031 440.789062 984.464844 428.644531 989.058594 418.140625 Z M 977.078125 441.941406 C 977.570312 446.207031 978.226562 450.636719 979.210938 454.90625 C 976.257812 456.710938 973.304688 458.515625 970.511719 460.484375 C 972.8125 454.085938 975.4375 446.699219 977.078125 441.941406 Z M 956.890625 470.988281 C 959.023438 464.425781 961.324219 458.023438 963.621094 451.621094 C 963.785156 456.054688 964.277344 460.484375 964.769531 464.753906 C 961.980469 466.722656 959.351562 468.691406 956.890625 470.988281 Z M 1078.011719 588.335938 C 1078.011719 589.484375 1077.847656 590.632812 1077.847656 591.617188 C 1075.386719 586.367188 1072.597656 581.445312 1069.644531 576.519531 C 1072.597656 578.488281 1075.550781 580.621094 1078.339844 582.59375 C 1078.175781 584.5625 1078.175781 586.367188 1078.011719 588.335938 Z M 1078.835938 571.105469 C 1068.167969 559.121094 1056.183594 548.617188 1043.382812 539.921875 C 1041.25 538.445312 1038.953125 537.128906 1036.820312 535.652344 C 1034.519531 534.339844 1032.222656 533.027344 1030.089844 531.878906 C 1017.289062 525.148438 1003.503906 520.71875 990.042969 519.242188 C 981.839844 518.257812 973.796875 518.421875 965.917969 519.570312 C 965.097656 519.734375 964.277344 519.898438 963.457031 520.0625 C 972.484375 514.808594 983.644531 513.003906 993.65625 516.78125 C 990.207031 512.183594 985.285156 508.574219 979.703125 505.949219 C 989.386719 504.796875 999.234375 505.125 1009.082031 507.425781 C 1002.679688 504.140625 995.789062 501.515625 988.566406 499.875 C 995.789062 498.5625 1014.003906 500.53125 1014.5 500.039062 C 1014.828125 499.546875 1014.664062 498.726562 1014.167969 498.398438 C 1009.082031 494.949219 1003.335938 492.160156 997.265625 490.191406 C 1007.277344 489.371094 1017.125 490.847656 1026.808594 494.128906 C 1018.4375 487.894531 1008.425781 483.132812 998.25 480.835938 C 999.726562 480.179688 1001.039062 479.195312 1002.515625 478.539062 C 1008.425781 478.210938 1014.5 479.195312 1020.570312 480.835938 L 1024.839844 482.148438 C 1026.808594 482.96875 1029.105469 483.953125 1031.074219 484.777344 C 1032.386719 485.433594 1035.835938 487.238281 1037.148438 487.894531 C 1036 486.746094 1033.371094 483.789062 1032.386719 482.804688 C 1030.746094 481.328125 1028.941406 479.523438 1027.136719 478.046875 L 1023.359375 475.09375 C 1022.375 474.4375 1021.390625 473.78125 1020.40625 473.121094 C 1026.316406 471.316406 1043.21875 473.449219 1044.695312 473.285156 C 1045.1875 472.792969 1045.023438 472.136719 1044.695312 471.644531 C 1039.117188 466.066406 1031.402344 462.617188 1023.851562 460.648438 C 1035.671875 457.039062 1047.980469 457.53125 1060.125 460.976562 C 1060.453125 460.976562 1060.78125 460.976562 1060.945312 460.648438 C 1061.273438 460.320312 1050.441406 452.28125 1044.367188 449.980469 C 1041.90625 449.160156 1039.445312 448.339844 1036.820312 447.847656 C 1046.832031 445.714844 1069.152344 446.042969 1069.316406 445.386719 C 1069.644531 444.730469 1069.152344 443.910156 1068.496094 443.582031 C 1052.574219 437.507812 1034.519531 436.359375 1017.125 439.640625 C 1010.066406 440.953125 1003.171875 443.089844 996.445312 445.878906 C 996.117188 433.40625 998.414062 422.082031 1001.859375 411.414062 C 1003.503906 415.351562 1005.308594 418.960938 1007.605469 422.082031 C 1008.261719 423.230469 1007.769531 406.160156 1008.589844 399.433594 C 1009.902344 403.535156 1015.15625 412.070312 1015.15625 410.921875 C 1015.484375 401.894531 1015.648438 392.539062 1017.125 383.839844 C 1018.601562 392.046875 1021.0625 400.417969 1023.851562 407.800781 C 1023.03125 390.570312 1025.496094 373.664062 1031.566406 359.386719 C 1028.777344 368.414062 1028.285156 378.589844 1030.253906 388.273438 C 1030.746094 391.226562 1031.730469 394.179688 1032.550781 397.132812 C 1031.894531 391.0625 1031.730469 385.152344 1032.714844 379.574219 C 1033.863281 371.039062 1037.3125 364.308594 1041.90625 358.894531 C 1041.90625 359.714844 1041.90625 360.371094 1042.070312 361.191406 C 1042.234375 362.996094 1042.398438 364.636719 1042.5625 366.28125 C 1042.890625 367.921875 1043.21875 369.726562 1043.546875 371.367188 C 1044.203125 374.648438 1045.1875 377.933594 1046.007812 381.050781 C 1046.175781 381.871094 1047.324219 381.871094 1047.324219 380.886719 C 1047.324219 380.722656 1047.488281 376.125 1047.488281 375.960938 C 1047.488281 374.320312 1047.488281 372.84375 1047.652344 371.203125 C 1047.816406 369.726562 1047.816406 368.085938 1047.980469 366.609375 C 1048.144531 365.128906 1048.472656 363.652344 1048.636719 362.175781 C 1049.457031 357.746094 1050.441406 353.640625 1051.917969 350.03125 C 1051.753906 360.863281 1053.722656 371.695312 1057.007812 381.707031 C 1057.664062 370.546875 1060.289062 360.207031 1065.046875 351.507812 C 1065.046875 352 1065.046875 352.65625 1065.046875 353.148438 C 1064.882812 360.207031 1066.03125 367.429688 1067.507812 374.320312 C 1067.675781 374.976562 1068.332031 374.976562 1068.332031 374.15625 C 1068.496094 368.742188 1068.660156 363.324219 1069.480469 358.238281 C 1069.644531 357.089844 1069.808594 355.613281 1070.136719 354.460938 C 1070.464844 352.328125 1071.285156 349.539062 1071.941406 347.40625 L 1073.089844 344.121094 C 1073.582031 343.136719 1074.074219 342.152344 1074.566406 341.167969 C 1074.894531 340.675781 1075.222656 340.183594 1075.550781 339.691406 C 1077.683594 366.773438 1079.328125 394.015625 1080.148438 421.097656 C 1081.953125 471.480469 1081.460938 521.375 1078.835938 571.105469 Z M 1156.300781 332.46875 C 1153.671875 330.171875 1150.71875 328.039062 1147.765625 325.90625 C 1155.808594 329.1875 1162.042969 334.277344 1165 340.839844 C 1162.207031 337.886719 1159.253906 335.097656 1156.300781 332.46875 Z M 1156.300781 332.46875 " fill-opacity="1" fill-rule="nonzero"/></g><g clip-path="url(#f8c6ed62a4)"><path fill="#fff9f3" d="M 301.390625 624.589844 C 299.578125 624.320312 294.949219 624.71875 295.15625 626.609375 C 295.359375 628.484375 295.824219 630.566406 295.285156 631.441406 C 294.742188 632.316406 292.597656 635.863281 292.597656 635.863281 C 292.597656 635.863281 290.515625 634.253906 288.371094 633.78125 C 286.222656 633.304688 280.324219 632.84375 279.242188 632.238281 C 278.175781 631.632812 268.71875 624.757812 266.804688 623.152344 C 264.886719 621.542969 258.964844 617.523438 256.445312 614.898438 C 253.925781 612.289062 252.523438 612.984375 252.523438 609.566406 C 252.523438 606.148438 251.109375 604.539062 248.605469 602.125 C 246.085938 599.707031 244.683594 597.203125 244.183594 592.664062 C 243.679688 588.140625 240.160156 572.746094 238.746094 569.738281 C 237.332031 566.730469 235.429688 558.375 235.226562 555.046875 C 235.019531 551.730469 236.433594 550.214844 236.125 546.601562 C 235.828125 542.976562 235.519531 542.269531 237.628906 541.074219 C 239.734375 539.867188 242.253906 537.054688 242.253906 535.949219 C 242.253906 534.84375 235.316406 534.738281 234.105469 533.839844 C 232.898438 532.941406 232.292969 531.230469 231.1875 529.921875 C 230.082031 528.609375 229.375 526.605469 229.375 526.605469 L 230.585938 525.394531 C 230.585938 525.394531 235.507812 527.710938 238.734375 526.898438 C 241.960938 526.089844 243.257812 517.144531 244.171875 514.933594 C 245.070312 512.722656 248.398438 507.789062 248.695312 505.386719 C 248.988281 502.96875 249.195312 500.757812 249.195312 500.757812 C 249.195312 500.757812 259.054688 496.132812 262.175781 492.3125 C 265.300781 488.496094 267.203125 474.910156 265.902344 473.304688 C 264.59375 471.699219 251.019531 472.804688 249.8125 472.703125 C 248.605469 472.597656 239.761719 459.695312 233.835938 459.398438 C 227.898438 459.105469 218.246094 460.105469 212.410156 462.816406 C 206.578125 465.53125 201.65625 472.070312 200.742188 476.09375 C 199.84375 480.117188 201.847656 490.476562 201.140625 492.492188 C 200.433594 494.511719 189.367188 499.730469 188.261719 500.539062 C 187.15625 501.347656 187.964844 503.148438 187.964844 503.148438 C 187.964844 503.148438 173.585938 499.125 169.164062 499.730469 C 164.742188 500.335938 158.304688 501.4375 155.785156 504.5625 C 153.265625 507.6875 144.511719 517.734375 142.40625 521.566406 C 140.296875 525.382812 137.882812 529.816406 136.273438 530.214844 C 134.667969 530.613281 122.691406 531.824219 121.496094 532.824219 C 120.285156 533.828125 113.652344 547.605469 110.429688 559.480469 C 107.214844 571.34375 104.800781 596.699219 105.800781 601.121094 C 106.804688 605.542969 107.820312 615.003906 107.40625 620.027344 C 107.007812 625.054688 111.828125 632.300781 112.242188 635.117188 C 112.652344 637.929688 117.367188 646.980469 116.660156 648.1875 C 115.953125 649.394531 112.535156 651.8125 114.449219 654.421875 C 116.367188 657.03125 123.304688 659.949219 123.304688 659.949219 C 123.304688 659.949219 123.101562 674.433594 124.117188 679.058594 C 125.132812 683.6875 128.847656 684.792969 128.847656 684.792969 L 131.96875 682.476562 C 131.96875 682.476562 127.84375 679.867188 128.242188 674.125 C 128.640625 668.390625 128.742188 660.847656 128.742188 660.847656 L 132.765625 660.949219 C 132.765625 660.949219 135.890625 666.578125 141.210938 668.894531 L 143.730469 666.375 C 143.730469 666.375 139.910156 663.957031 138.394531 660.640625 C 138.394531 660.640625 144.527344 662.453125 147.945312 662.351562 C 151.363281 662.25 155.386719 660.640625 155.386719 660.640625 C 155.386719 660.640625 156.492188 672.503906 157.09375 673.816406 C 157.699219 675.125 159.808594 675.125 159.808594 675.730469 C 159.808594 676.335938 163.226562 693.632812 167.351562 699.570312 C 171.476562 705.507812 175.191406 707.320312 175.191406 707.320312 C 175.191406 707.320312 174.765625 711.753906 174.703125 716.511719 L 53.878906 821.230469 C 52.015625 819.394531 50.316406 818.289062 49.878906 818.699219 C 49.445312 819.097656 50.371094 820.859375 52.015625 822.851562 L 32.789062 839.535156 C 32.789062 839.535156 32.53125 840.625 33.019531 841.230469 C 33.507812 841.820312 34.199219 841.667969 34.199219 841.667969 L 53.902344 824.945312 C 55.765625 826.796875 57.464844 827.890625 57.914062 827.476562 C 58.351562 827.078125 57.4375 825.332031 55.792969 823.339844 L 174.871094 722.253906 C 175.039062 724.210938 175.332031 725.878906 175.847656 726.910156 C 177.953125 731.136719 179.164062 737.472656 178.867188 739.890625 C 178.570312 742.304688 177.96875 744.863281 177.96875 746.226562 C 177.96875 747.585938 178.417969 750.453125 176 752.265625 C 173.585938 754.078125 170.421875 759.65625 166.492188 761.777344 C 162.570312 763.882812 147.171875 771.429688 137.972656 777.019531 C 128.769531 782.597656 114.4375 793.921875 111.109375 797.6875 C 107.792969 801.453125 102.664062 805.679688 101.753906 805.679688 C 100.839844 805.679688 93.808594 805.28125 90.441406 806.128906 C 87.074219 806.980469 83.757812 808.546875 83.503906 808.546875 C 83.246094 808.546875 80.1875 807.941406 77.667969 808.996094 C 75.148438 810.050781 79.171875 829.265625 80.328125 831.320312 C 81.484375 833.378906 83.902344 834.945312 84.054688 837.8125 C 84.210938 840.675781 86.113281 854.90625 88.476562 860.945312 C 90.839844 866.984375 98.734375 876.792969 101.097656 877.691406 C 103.460938 878.59375 106.226562 875.878906 106.226562 875.878906 C 106.226562 875.878906 108.28125 874.429688 107.78125 871.304688 C 107.28125 868.179688 105.671875 860.84375 106.367188 857.925781 C 107.0625 855.007812 111.097656 851.191406 111.390625 847.066406 C 111.6875 842.941406 112.292969 837.308594 113.101562 836.601562 C 113.910156 835.894531 121.75 832.582031 122.355469 830.972656 C 122.960938 829.367188 127.484375 830.074219 127.984375 827.65625 C 128.484375 825.242188 134.71875 820.511719 138.445312 817.503906 C 142.171875 814.484375 156.144531 803.519531 161.476562 800.207031 C 166.8125 796.890625 172.941406 795.785156 174.855469 794.972656 C 176.773438 794.164062 178.675781 790.847656 180.089844 790.140625 C 181.5 789.433594 187.632812 786.929688 190.550781 785.722656 C 193.46875 784.511719 198.59375 782.90625 200.613281 781.492188 C 202.632812 780.078125 205.34375 775.761719 205.34375 775.761719 C 205.34375 775.761719 206.34375 795.371094 205.636719 799.191406 C 204.933594 803.007812 204.328125 820.410156 204.328125 827.554688 C 204.328125 834.699219 204.535156 848.878906 205.136719 849.984375 C 205.742188 851.085938 209.261719 851.898438 208.761719 853.105469 C 208.261719 854.3125 205.445312 857.078125 205.84375 859.289062 C 206.242188 861.5 208.761719 866.625 208.609375 870.300781 C 208.453125 873.976562 207.902344 877.359375 209.816406 877.886719 C 211.730469 878.398438 218.207031 879.105469 225.664062 879.003906 C 233.105469 878.898438 232.757812 876.535156 234.210938 876.085938 C 235.660156 875.636719 242.050781 875.738281 245.777344 876.945312 C 249.503906 878.15625 257.550781 879.054688 263.9375 878.605469 C 270.324219 878.15625 277.007812 877.050781 278.628906 875.945312 C 280.234375 874.839844 277.726562 871.613281 277.726562 871.613281 C 277.726562 871.613281 275.914062 866.332031 271.238281 865.625 C 266.558594 864.917969 261.726562 864.3125 258.511719 862.550781 C 255.300781 860.792969 252.988281 857.476562 250.417969 855.90625 C 249.078125 855.097656 247.050781 853.660156 245.3125 852.15625 L 248.898438 837.773438 C 251.496094 838.183594 253.515625 838.09375 253.628906 837.503906 C 253.757812 836.925781 251.984375 836.039062 249.492188 835.371094 L 292.96875 661.246094 C 294.960938 661.527344 297.300781 661.128906 297.6875 660.746094 C 298.253906 660.179688 298.691406 658.804688 298.691406 658.804688 C 298.691406 658.804688 301.375 658.070312 302.25 657.195312 C 303.125 656.324219 302.585938 654.652344 302.585938 654.652344 C 302.585938 654.652344 304.667969 653.777344 304.792969 652.109375 C 304.921875 650.4375 303.855469 649.152344 303.855469 649.152344 C 303.855469 649.152344 306.003906 647.273438 305.875 645.460938 C 305.746094 643.652344 302.996094 640.5 301.914062 639.769531 C 300.847656 639.035156 301.789062 634.539062 302.726562 633.601562 C 303.664062 632.660156 307.957031 631.453125 308.085938 629.78125 C 308.214844 628.113281 303.1875 624.886719 301.375 624.617188 Z M 246.753906 834.777344 C 244.171875 834.367188 242.152344 834.46875 242.023438 835.046875 C 241.894531 835.625 243.667969 836.511719 246.175781 837.179688 L 243.117188 850.007812 C 242.5625 849.378906 242.152344 848.789062 241.984375 848.285156 C 241.253906 846.140625 241.652344 844.996094 240.441406 844.058594 C 239.234375 843.121094 237.628906 842.039062 237.628906 842.039062 C 237.628906 842.039062 240.042969 835.742188 239.773438 833.789062 C 239.503906 831.847656 237.164062 823.261719 236.960938 820.910156 C 236.753906 818.558594 241.035156 804.433594 239.824219 799.152344 C 238.617188 793.871094 237.5625 788.445312 238.015625 785.269531 C 238.464844 782.097656 245.710938 773.652344 245.710938 766.109375 C 245.710938 758.5625 241.34375 746.648438 240.585938 741.972656 C 239.824219 737.292969 239.375 725.070312 238.015625 719.492188 C 236.652344 713.914062 233.644531 709.6875 232.4375 703.644531 C 231.226562 697.605469 228.363281 694.441406 228.671875 691.871094 C 228.964844 689.300781 229.722656 686.292969 230.636719 684.03125 C 231.535156 681.769531 231.203125 677.605469 231.203125 677.605469 C 231.203125 677.605469 233.285156 677.335938 234.222656 677.003906 C 235.160156 676.667969 235.636719 675.125 235.636719 675.125 C 235.636719 675.125 238.320312 676.460938 239.453125 676.0625 C 240.597656 675.664062 241.535156 673.25 241.535156 673.25 C 241.535156 673.25 244.554688 673.3125 245.6875 672.183594 C 246.832031 671.039062 246.960938 668.558594 246.960938 668.558594 C 246.960938 668.558594 250.851562 667.492188 251.457031 666.347656 C 252.0625 665.203125 250.082031 660.679688 250.648438 660.113281 C 251.214844 659.550781 255.75 659.242188 258.152344 658.90625 C 260.570312 658.570312 255.878906 652.609375 253.589844 650.71875 C 251.316406 648.84375 249.695312 648.175781 248.757812 648.84375 C 247.820312 649.511719 247.550781 650.785156 246.675781 651.257812 C 245.800781 651.734375 244.660156 652.132812 244.660156 652.132812 C 244.660156 652.132812 242.382812 648.984375 239.824219 647.839844 C 237.28125 646.695312 232.050781 647.238281 232.050781 647.238281 C 232.050781 647.238281 229.234375 644.085938 228.761719 642.816406 C 228.285156 641.542969 230.300781 632.019531 230.300781 632.019531 C 230.300781 632.019531 242.769531 640.398438 247.742188 644.960938 C 252.703125 649.523438 263.5625 652.609375 266.726562 653.339844 C 269.886719 654.074219 274.707031 654.820312 275.980469 654.550781 C 277.253906 654.28125 277.792969 653.007812 277.792969 653.007812 C 277.792969 653.007812 279.734375 653.070312 281.003906 654.152344 C 281.980469 654.972656 286.121094 657.144531 288.742188 658.867188 L 246.753906 834.765625 Z M 246.753906 834.777344 " fill-opacity="1" fill-rule="nonzero"/></g><path stroke-linecap="butt" transform="matrix(0.000000007745, 4.437557, -4.437557, 0.000000007745, 753.529528, 761.552602)" fill="none" stroke-linejoin="miter" d="M -0.000410406 3.499567 L 12.885867 3.499567 " stroke="#012c18" stroke-width="7" stroke-opacity="1" stroke-miterlimit="4"/><path stroke-linecap="butt" transform="matrix(0.000000007745, 4.437557, -4.437557, 0.000000007745, 707.542988, 761.552602)" fill="none" stroke-linejoin="miter" d="M -0.000410405 2.999966 L 12.885867 2.999966 " stroke="#012c18" stroke-width="6" stroke-opacity="1" stroke-miterlimit="4"/><path stroke-linecap="butt" transform="matrix(0.000000007745, 4.437557, -4.437557, 0.000000007745, 666.040872, 761.552602)" fill="none" stroke-linejoin="miter" d="M -0.000410404 2.500375 L 12.885867 2.500375 " stroke="#012c18" stroke-width="5" stroke-opacity="1" stroke-miterlimit="4"/><path stroke-linecap="butt" transform="matrix(0.000000007745, 4.437557, -4.437557, 0.000000007745, 629.023155, 761.552602)" fill="none" stroke-linejoin="miter" d="M -0.000410403 1.999911 L 12.885867 1.999911 " stroke="#012c18" stroke-width="4" stroke-opacity="1" stroke-miterlimit="4"/><path stroke-linecap="butt" transform="matrix(0.000000007745, 4.437557, -4.437557, 0.000000007745, 596.489862, 761.552602)" fill="none" stroke-linejoin="miter" d="M -0.000410402 1.500337 L 12.885867 1.500337 " stroke="#012c18" stroke-width="3" stroke-opacity="1" stroke-miterlimit="4"/><path stroke-linecap="butt" transform="matrix(0.000000007745, 4.437557, -4.437557, 0.000000007745, 568.440992, 761.552602)" fill="none" stroke-linejoin="miter" d="M -0.000410401 0.999894 L 12.885867 0.999894 " stroke="#a72907" stroke-width="2" stroke-opacity="1" stroke-miterlimit="4"/><g fill="#a72907" fill-opacity="1"><g transform="translate(777.142912, 819.451279)"><g><path d="M 0.828125 -57.96875 L 28.984375 -57.96875 L 28.984375 -49.6875 L 19.46875 -49.6875 L 19.46875 0 L 10.359375 0 L 10.359375 -49.6875 L 0.828125 -49.6875 Z M 0.828125 -57.96875 "/></g></g></g><g fill="#a72907" fill-opacity="1"><g transform="translate(815.2301, 819.451279)"><g><path d="M 12.421875 0 L 3.3125 0 L 3.3125 -57.96875 L 12.421875 -57.96875 L 12.421875 -33.125 L 22.78125 -33.125 L 22.78125 -57.96875 L 32.046875 -57.96875 L 32.046875 0 L 22.78125 0 L 22.78125 -24.84375 L 12.421875 -24.84375 Z M 12.421875 0 "/></g></g></g><g fill="#a72907" fill-opacity="1"><g transform="translate(858.864099, 819.451279)"><g><path d="M 12.421875 -33.546875 L 24.921875 -33.546875 L 24.921875 -25.265625 L 12.421875 -25.265625 L 12.421875 -8.28125 L 28.15625 -8.28125 L 28.15625 0 L 3.3125 0 L 3.3125 -57.96875 L 28.15625 -57.96875 L 28.15625 -49.6875 L 12.421875 -49.6875 Z M 12.421875 -33.546875 "/></g></g></g><g fill="#a72907" fill-opacity="1"><g transform="translate(897.613647, 819.451279)"><g/></g></g><g fill="#a72907" fill-opacity="1"><g transform="translate(918.729294, 819.451279)"><g><path d="M 16.984375 -32.296875 L 29.734375 -32.296875 L 29.734375 -13.90625 C 29.734375 -9.21875 28.585938 -5.617188 26.296875 -3.109375 C 24.003906 -0.597656 20.625 0.65625 16.15625 0.65625 C 11.675781 0.65625 8.289062 -0.597656 6 -3.109375 C 3.707031 -5.617188 2.5625 -9.21875 2.5625 -13.90625 L 2.5625 -44.0625 C 2.5625 -48.75 3.707031 -52.347656 6 -54.859375 C 8.289062 -57.367188 11.675781 -58.625 16.15625 -58.625 C 20.625 -58.625 24.003906 -57.367188 26.296875 -54.859375 C 28.585938 -52.347656 29.734375 -48.75 29.734375 -44.0625 L 29.734375 -38.421875 L 21.125 -38.421875 L 21.125 -44.640625 C 21.125 -46.734375 20.691406 -48.207031 19.828125 -49.0625 C 18.972656 -49.914062 17.828125 -50.34375 16.390625 -50.34375 C 14.960938 -50.34375 13.816406 -49.914062 12.953125 -49.0625 C 12.097656 -48.207031 11.671875 -46.734375 11.671875 -44.640625 L 11.671875 -13.328125 C 11.671875 -11.234375 12.097656 -9.769531 12.953125 -8.9375 C 13.816406 -8.113281 14.960938 -7.703125 16.390625 -7.703125 C 17.828125 -7.703125 18.972656 -8.113281 19.828125 -8.9375 C 20.691406 -9.769531 21.125 -11.234375 21.125 -13.328125 L 21.125 -24.015625 L 16.984375 -24.015625 Z M 16.984375 -32.296875 "/></g></g></g><g fill="#a72907" fill-opacity="1"><g transform="translate(959.300153, 819.451279)"><g><path d="M 22.359375 0 C 22.242188 -0.382812 22.128906 -0.742188 22.015625 -1.078125 C 21.910156 -1.410156 21.816406 -1.820312 21.734375 -2.3125 C 21.648438 -2.8125 21.59375 -3.445312 21.5625 -4.21875 C 21.539062 -5 21.53125 -5.96875 21.53125 -7.125 L 21.53125 -16.234375 C 21.53125 -18.941406 21.0625 -20.847656 20.125 -21.953125 C 19.1875 -23.054688 17.664062 -23.609375 15.5625 -23.609375 L 12.421875 -23.609375 L 12.421875 0 L 3.3125 0 L 3.3125 -57.96875 L 17.0625 -57.96875 C 21.8125 -57.96875 25.25 -56.863281 27.375 -54.65625 C 29.5 -52.445312 30.5625 -49.109375 30.5625 -44.640625 L 30.5625 -40.078125 C 30.5625 -34.117188 28.570312 -30.203125 24.59375 -28.328125 C 26.914062 -27.390625 28.503906 -25.851562 29.359375 -23.71875 C 30.210938 -21.59375 30.640625 -19.015625 30.640625 -15.984375 L 30.640625 -7.046875 C 30.640625 -5.609375 30.691406 -4.347656 30.796875 -3.265625 C 30.910156 -2.191406 31.191406 -1.101562 31.640625 0 Z M 12.421875 -49.6875 L 12.421875 -31.890625 L 15.984375 -31.890625 C 17.691406 -31.890625 19.03125 -32.328125 20 -33.203125 C 20.96875 -34.085938 21.453125 -35.691406 21.453125 -38.015625 L 21.453125 -43.71875 C 21.453125 -45.820312 21.078125 -47.34375 20.328125 -48.28125 C 19.585938 -49.21875 18.414062 -49.6875 16.8125 -49.6875 Z M 12.421875 -49.6875 "/></g></g></g><g fill="#a72907" fill-opacity="1"><g transform="translate(1000.86447, 819.451279)"><g><path d="M 12.421875 -33.546875 L 24.921875 -33.546875 L 24.921875 -25.265625 L 12.421875 -25.265625 L 12.421875 -8.28125 L 28.15625 -8.28125 L 28.15625 0 L 3.3125 0 L 3.3125 -57.96875 L 28.15625 -57.96875 L 28.15625 -49.6875 L 12.421875 -49.6875 Z M 12.421875 -33.546875 "/></g></g></g><g fill="#a72907" fill-opacity="1"><g transform="translate(1039.614009, 819.451279)"><g><path d="M 32.796875 0 L 23.609375 0 L 22.03125 -10.515625 L 10.84375 -10.515625 L 9.28125 0 L 0.90625 0 L 10.1875 -57.96875 L 23.515625 -57.96875 Z M 12.015625 -18.390625 L 20.78125 -18.390625 L 16.390625 -47.703125 Z M 12.015625 -18.390625 "/></g></g></g><g fill="#a72907" fill-opacity="1"><g transform="translate(1081.592249, 819.451279)"><g><path d="M 0.828125 -57.96875 L 28.984375 -57.96875 L 28.984375 -49.6875 L 19.46875 -49.6875 L 19.46875 0 L 10.359375 0 L 10.359375 -49.6875 L 0.828125 -49.6875 Z M 0.828125 -57.96875 "/></g></g></g><g fill="#a72907" fill-opacity="1"><g transform="translate(1119.679432, 819.451279)"><g/></g></g><g fill="#a72907" fill-opacity="1"><g transform="translate(1140.795071, 819.451279)"><g><path d="M 11.671875 -13.328125 C 11.671875 -11.234375 12.097656 -9.757812 12.953125 -8.90625 C 13.816406 -8.050781 14.960938 -7.625 16.390625 -7.625 C 17.828125 -7.625 18.972656 -8.050781 19.828125 -8.90625 C 20.691406 -9.757812 21.125 -11.234375 21.125 -13.328125 L 21.125 -44.640625 C 21.125 -46.734375 20.691406 -48.207031 19.828125 -49.0625 C 18.972656 -49.914062 17.828125 -50.34375 16.390625 -50.34375 C 14.960938 -50.34375 13.816406 -49.914062 12.953125 -49.0625 C 12.097656 -48.207031 11.671875 -46.734375 11.671875 -44.640625 Z M 2.5625 -44.0625 C 2.5625 -48.75 3.75 -52.347656 6.125 -54.859375 C 8.5 -57.367188 11.921875 -58.625 16.390625 -58.625 C 20.867188 -58.625 24.296875 -57.367188 26.671875 -54.859375 C 29.046875 -52.347656 30.234375 -48.75 30.234375 -44.0625 L 30.234375 -13.90625 C 30.234375 -9.21875 29.046875 -5.617188 26.671875 -3.109375 C 24.296875 -0.597656 20.867188 0.65625 16.390625 0.65625 C 11.921875 0.65625 8.5 -0.597656 6.125 -3.109375 C 3.75 -5.617188 2.5625 -9.21875 2.5625 -13.90625 Z M 2.5625 -44.0625 "/></g></g></g><g fill="#a72907" fill-opacity="1"><g transform="translate(1181.862655, 819.451279)"><g><path d="M 12.015625 -57.96875 L 12.015625 -13.25 C 12.015625 -11.15625 12.441406 -9.691406 13.296875 -8.859375 C 14.148438 -8.035156 15.296875 -7.625 16.734375 -7.625 C 18.160156 -7.625 19.300781 -8.035156 20.15625 -8.859375 C 21.019531 -9.691406 21.453125 -11.15625 21.453125 -13.25 L 21.453125 -57.96875 L 30.0625 -57.96875 L 30.0625 -13.828125 C 30.0625 -9.140625 28.914062 -5.535156 26.625 -3.015625 C 24.332031 -0.503906 20.953125 0.75 16.484375 0.75 C 12.003906 0.75 8.617188 -0.503906 6.328125 -3.015625 C 4.046875 -5.535156 2.90625 -9.140625 2.90625 -13.828125 L 2.90625 -57.96875 Z M 12.015625 -57.96875 "/></g></g></g><g fill="#a72907" fill-opacity="1"><g transform="translate(1223.095794, 819.451279)"><g><path d="M 0.828125 -57.96875 L 28.984375 -57.96875 L 28.984375 -49.6875 L 19.46875 -49.6875 L 19.46875 0 L 10.359375 0 L 10.359375 -49.6875 L 0.828125 -49.6875 Z M 0.828125 -57.96875 "/></g></g></g><g fill="#a72907" fill-opacity="1"><g transform="translate(1261.182978, 819.451279)"><g><path d="M 3.3125 -57.96875 L 17.71875 -57.96875 C 22.300781 -57.96875 25.707031 -56.753906 27.9375 -54.328125 C 30.175781 -51.898438 31.296875 -48.335938 31.296875 -43.640625 L 31.296875 -14.328125 C 31.296875 -9.628906 30.175781 -6.066406 27.9375 -3.640625 C 25.707031 -1.210938 22.300781 0 17.71875 0 L 3.3125 0 Z M 12.421875 -49.6875 L 12.421875 -8.28125 L 17.5625 -8.28125 C 18.988281 -8.28125 20.113281 -8.691406 20.9375 -9.515625 C 21.769531 -10.347656 22.1875 -11.8125 22.1875 -13.90625 L 22.1875 -44.0625 C 22.1875 -46.15625 21.769531 -47.613281 20.9375 -48.4375 C 20.113281 -49.269531 18.988281 -49.6875 17.5625 -49.6875 Z M 12.421875 -49.6875 "/></g></g></g><g fill="#a72907" fill-opacity="1"><g transform="translate(1303.244028, 819.451279)"><g><path d="M 11.671875 -13.328125 C 11.671875 -11.234375 12.097656 -9.757812 12.953125 -8.90625 C 13.816406 -8.050781 14.960938 -7.625 16.390625 -7.625 C 17.828125 -7.625 18.972656 -8.050781 19.828125 -8.90625 C 20.691406 -9.757812 21.125 -11.234375 21.125 -13.328125 L 21.125 -44.640625 C 21.125 -46.734375 20.691406 -48.207031 19.828125 -49.0625 C 18.972656 -49.914062 17.828125 -50.34375 16.390625 -50.34375 C 14.960938 -50.34375 13.816406 -49.914062 12.953125 -49.0625 C 12.097656 -48.207031 11.671875 -46.734375 11.671875 -44.640625 Z M 2.5625 -44.0625 C 2.5625 -48.75 3.75 -52.347656 6.125 -54.859375 C 8.5 -57.367188 11.921875 -58.625 16.390625 -58.625 C 20.867188 -58.625 24.296875 -57.367188 26.671875 -54.859375 C 29.046875 -52.347656 30.234375 -48.75 30.234375 -44.0625 L 30.234375 -13.90625 C 30.234375 -9.21875 29.046875 -5.617188 26.671875 -3.109375 C 24.296875 -0.597656 20.867188 0.65625 16.390625 0.65625 C 11.921875 0.65625 8.5 -0.597656 6.125 -3.109375 C 3.75 -5.617188 2.5625 -9.21875 2.5625 -13.90625 Z M 2.5625 -44.0625 "/></g></g></g><g fill="#a72907" fill-opacity="1"><g transform="translate(1344.311612, 819.451279)"><g><path d="M 11.671875 -13.328125 C 11.671875 -11.234375 12.097656 -9.757812 12.953125 -8.90625 C 13.816406 -8.050781 14.960938 -7.625 16.390625 -7.625 C 17.828125 -7.625 18.972656 -8.050781 19.828125 -8.90625 C 20.691406 -9.757812 21.125 -11.234375 21.125 -13.328125 L 21.125 -44.640625 C 21.125 -46.734375 20.691406 -48.207031 19.828125 -49.0625 C 18.972656 -49.914062 17.828125 -50.34375 16.390625 -50.34375 C 14.960938 -50.34375 13.816406 -49.914062 12.953125 -49.0625 C 12.097656 -48.207031 11.671875 -46.734375 11.671875 -44.640625 Z M 2.5625 -44.0625 C 2.5625 -48.75 3.75 -52.347656 6.125 -54.859375 C 8.5 -57.367188 11.921875 -58.625 16.390625 -58.625 C 20.867188 -58.625 24.296875 -57.367188 26.671875 -54.859375 C 29.046875 -52.347656 30.234375 -48.75 30.234375 -44.0625 L 30.234375 -13.90625 C 30.234375 -9.21875 29.046875 -5.617188 26.671875 -3.109375 C 24.296875 -0.597656 20.867188 0.65625 16.390625 0.65625 C 11.921875 0.65625 8.5 -0.597656 6.125 -3.109375 C 3.75 -5.617188 2.5625 -9.21875 2.5625 -13.90625 Z M 2.5625 -44.0625 "/></g></g></g><g fill="#a72907" fill-opacity="1"><g transform="translate(1385.37923, 819.451279)"><g><path d="M 22.359375 0 C 22.242188 -0.382812 22.128906 -0.742188 22.015625 -1.078125 C 21.910156 -1.410156 21.816406 -1.820312 21.734375 -2.3125 C 21.648438 -2.8125 21.59375 -3.445312 21.5625 -4.21875 C 21.539062 -5 21.53125 -5.96875 21.53125 -7.125 L 21.53125 -16.234375 C 21.53125 -18.941406 21.0625 -20.847656 20.125 -21.953125 C 19.1875 -23.054688 17.664062 -23.609375 15.5625 -23.609375 L 12.421875 -23.609375 L 12.421875 0 L 3.3125 0 L 3.3125 -57.96875 L 17.0625 -57.96875 C 21.8125 -57.96875 25.25 -56.863281 27.375 -54.65625 C 29.5 -52.445312 30.5625 -49.109375 30.5625 -44.640625 L 30.5625 -40.078125 C 30.5625 -34.117188 28.570312 -30.203125 24.59375 -28.328125 C 26.914062 -27.390625 28.503906 -25.851562 29.359375 -23.71875 C 30.210938 -21.59375 30.640625 -19.015625 30.640625 -15.984375 L 30.640625 -7.046875 C 30.640625 -5.609375 30.691406 -4.347656 30.796875 -3.265625 C 30.910156 -2.191406 31.191406 -1.101562 31.640625 0 Z M 12.421875 -49.6875 L 12.421875 -31.890625 L 15.984375 -31.890625 C 17.691406 -31.890625 19.03125 -32.328125 20 -33.203125 C 20.96875 -34.085938 21.453125 -35.691406 21.453125 -38.015625 L 21.453125 -43.71875 C 21.453125 -45.820312 21.078125 -47.34375 20.328125 -48.28125 C 19.585938 -49.21875 18.414062 -49.6875 16.8125 -49.6875 Z M 12.421875 -49.6875 "/></g></g></g><g fill="#a72907" fill-opacity="1"><g transform="translate(1426.943547, 819.451279)"><g><path d="M 2.15625 -44.0625 C 2.15625 -48.75 3.269531 -52.347656 5.5 -54.859375 C 7.738281 -57.367188 11.09375 -58.625 15.5625 -58.625 C 20.039062 -58.625 23.394531 -57.367188 25.625 -54.859375 C 27.863281 -52.347656 28.984375 -48.75 28.984375 -44.0625 L 28.984375 -41.828125 L 20.375 -41.828125 L 20.375 -44.640625 C 20.375 -46.734375 19.972656 -48.207031 19.171875 -49.0625 C 18.367188 -49.914062 17.25 -50.34375 15.8125 -50.34375 C 14.382812 -50.34375 13.269531 -49.914062 12.46875 -49.0625 C 11.664062 -48.207031 11.265625 -46.734375 11.265625 -44.640625 C 11.265625 -42.648438 11.703125 -40.894531 12.578125 -39.375 C 13.460938 -37.851562 14.566406 -36.414062 15.890625 -35.0625 C 17.222656 -33.71875 18.644531 -32.367188 20.15625 -31.015625 C 21.675781 -29.660156 23.097656 -28.179688 24.421875 -26.578125 C 25.753906 -24.984375 26.859375 -23.160156 27.734375 -21.109375 C 28.617188 -19.066406 29.0625 -16.664062 29.0625 -13.90625 C 29.0625 -9.21875 27.914062 -5.617188 25.625 -3.109375 C 23.332031 -0.597656 19.953125 0.65625 15.484375 0.65625 C 11.015625 0.65625 7.632812 -0.597656 5.34375 -3.109375 C 3.050781 -5.617188 1.90625 -9.21875 1.90625 -13.90625 L 1.90625 -17.890625 L 10.515625 -17.890625 L 10.515625 -13.328125 C 10.515625 -11.234375 10.941406 -9.769531 11.796875 -8.9375 C 12.648438 -8.113281 13.796875 -7.703125 15.234375 -7.703125 C 16.671875 -7.703125 17.816406 -8.113281 18.671875 -8.9375 C 19.523438 -9.769531 19.953125 -11.234375 19.953125 -13.328125 C 19.953125 -15.316406 19.507812 -17.070312 18.625 -18.59375 C 17.75 -20.113281 16.644531 -21.546875 15.3125 -22.890625 C 13.988281 -24.242188 12.566406 -25.597656 11.046875 -26.953125 C 9.535156 -28.304688 8.113281 -29.78125 6.78125 -31.375 C 5.457031 -32.976562 4.351562 -34.800781 3.46875 -36.84375 C 2.59375 -38.894531 2.15625 -41.300781 2.15625 -44.0625 Z M 2.15625 -44.0625 "/></g></g></g></svg>