<?xml version="1.0" standalone="no"?><svg xmlns="http://www.w3.org/2000/svg" viewBox="0 0 1440 320"><path fill="#1f2524" fill-opacity="1" d="M0,160L34.3,138.7C68.6,117,137,75,206,69.3C274.3,64,343,96,411,122.7C480,149,549,171,617,165.3C685.7,160,754,128,823,112C891.4,96,960,96,1029,90.7C1097.1,85,1166,75,1234,96C1302.9,117,1371,171,1406,197.3L1440,224L1440,320L1405.7,320C1371.4,320,1303,320,1234,320C1165.7,320,1097,320,1029,320C960,320,891,320,823,320C754.3,320,686,320,617,320C548.6,320,480,320,411,320C342.9,320,274,320,206,320C137.1,320,69,320,34,320L0,320Z"></path></svg>